<?xml version="1.0" encoding="UTF-8" standalone="no"?>
<!-- Created with Inkscape (http://www.inkscape.org/) -->

<svg
   width="75.75708mm"
   height="76.407837mm"
   viewBox="-11 -36 100 100"
   version="1.1"
   id="svg5"
   xml:space="preserve"
   inkscape:version="1.2.1 (9c6d41e, 2022-07-14)"
   sodipodi:docname="logo.svg"
   xmlns:inkscape="http://www.inkscape.org/namespaces/inkscape"
   xmlns:sodipodi="http://sodipodi.sourceforge.net/DTD/sodipodi-0.dtd"
   xmlns="http://www.w3.org/2000/svg"
   xmlns:svg="http://www.w3.org/2000/svg"><sodipodi:namedview
     id="namedview7"
     pagecolor="#505050"
     bordercolor="#ffffff"
     borderopacity="1"
     inkscape:showpageshadow="0"
     inkscape:pageopacity="0"
     inkscape:pagecheckerboard="1"
     inkscape:deskcolor="#505050"
     inkscape:document-units="mm"
     showgrid="false"
     inkscape:zoom="1.5090984"
     inkscape:cx="148.433"
     inkscape:cy="144.12579"
     inkscape:window-width="1390"
     inkscape:window-height="847"
     inkscape:window-x="1638"
     inkscape:window-y="75"
     inkscape:window-maximized="0"
     inkscape:current-layer="layer1" /><defs
     id="defs2" /><g
     inkscape:label="Layer 1"
     inkscape:groupmode="layer"
     id="layer1"
     transform="translate(-59.429807,-98.069675)"><path
       style="fill:#ffffff;stroke-width:0.264583"
       d="m 104.67092,173.99559 c -0.43656,-0.27114 -1.06363,-0.7865 -1.39349,-1.14525 -0.80346,-0.87384 -1.69636,-3.48862 -1.59706,-4.67685 0.0723,-0.86509 0.1558,-0.95898 0.85296,-0.95898 0.72452,0 0.79446,0.0952 1.11886,1.52363 0.66838,2.94292 1.71017,4.1025 3.40081,3.78533 1.36585,-0.25623 1.76606,-1.02173 1.46774,-2.80741 -0.13262,-0.79377 -0.42864,-1.96603 -0.65783,-2.60501 -0.47242,-1.31707 -0.20542,-1.96456 0.75361,-1.82754 0.74099,0.10587 1.38234,1.48947 1.78798,3.85723 0.44196,2.57974 0.0313,3.87798 -1.50025,4.74322 -1.32173,0.74669 -3.13388,0.79447 -4.23333,0.11163 z m -9.838614,-0.15689 c -1.17593,-0.51144 -1.75681,-1.76505 -1.78213,-3.84607 -0.0197,-1.61839 0.0163,-1.72506 0.61061,-1.80908 0.7362,-0.1041 1.07853,0.32359 1.0842,1.35456 0.002,0.40485 0.17998,1.15716 0.39501,1.67179 0.33185,0.79422 0.50186,0.92294 1.12448,0.8514 l 0.73352,-0.0843 -0.0818,-1.95907 c -0.0776,-1.85802 0.0964,-2.38684 0.79054,-2.40251 0.48372,-0.0109 0.97988,0.91476 1.16411,2.17189 0.384,2.6202 -0.0541,3.71019 -1.67188,4.15946 -1.24148,0.34477 -1.33529,0.34049 -2.36663,-0.10808 z m -8.197267,-0.18721 c -0.460875,-0.12267 -1.159666,-0.60536 -1.552864,-1.07265 -0.638245,-0.75851 -0.700673,-1.0066 -0.582164,-2.31353 0.177399,-1.95639 0.814059,-3.44768 1.471882,-3.44768 0.97976,0 1.167019,0.60735 0.719608,2.33397 -0.452591,1.7466 -0.357732,2.32521 0.421762,2.57261 0.719122,0.22824 1.241597,-0.2894 1.440765,-1.42743 0.322852,-1.84477 1.223719,-2.64854 1.966013,-1.75414 0.270205,0.32558 0.250182,0.74058 -0.105228,2.1808 -0.241416,0.97829 -0.649218,1.98898 -0.906229,2.24599 -0.653355,0.65336 -1.883977,0.94545 -2.873545,0.68206 z m 31.433531,-1.88065 c -1.29527,-0.41403 -3.55662,-2.60294 -5.06888,-4.90648 -1.39535,-2.12547 -1.55809,-2.69253 -0.92381,-3.21893 0.62365,-0.51758 1.07738,-0.1631 2.4338,1.90143 2.51265,3.82438 4.39961,5.03593 6.86767,4.40947 2.57234,-0.65293 1.89726,-3.54436 -1.74458,-7.47208 -1.87563,-2.02288 -2.08727,-2.62018 -1.04554,-2.95081 0.64928,-0.20608 1.56725,0.50496 3.35961,2.60224 2.62623,3.07302 3.59036,6.25367 2.44645,8.07077 -1.02217,1.62372 -3.9069,2.33724 -6.32472,1.56439 z m -53.893943,-2.27339 c -1.171791,-0.71458 -3.117135,-3.03424 -3.991167,-4.75914 -0.69645,-1.37445 -0.756081,-1.72285 -0.753582,-4.40297 0.0019,-2.02485 0.144855,-3.37275 0.469864,-4.42988 0.407296,-1.32479 0.605371,-1.58999 1.54596,-2.06984 0.593346,-0.3027 2.644095,-0.88856 4.55722,-1.30191 8.247136,-1.78186 14.516998,-5.05605 21.337785,-11.14282 3.061258,-2.73183 6.765979,-5.40698 9.113899,-6.58107 1.22606,-0.6131 3.619914,-1.45661 5.637544,-1.98647 5.04668,-1.32534 5.9392,-1.86534 8.53519,-5.16405 2.22886,-2.8322 4.4526,-4.58481 8.4355,-6.64835 1.13303,-0.58701 3.88943,-2.49648 6.12533,-4.24325 4.1454,-3.23855 5.63977,-4.18965 6.58279,-4.18965 0.65279,0 2.2926,1.40417 2.81138,2.40739 0.56211,1.08698 0.47401,1.84399 -0.36935,3.17384 -1.39887,2.20577 -4.88397,4.74602 -10.28262,7.49488 -3.51013,1.78726 -4.95157,3.18916 -6.66455,6.4817 -1.98706,3.8194 -4.58381,5.93447 -11.14258,9.07574 -5.63119,2.697 -10.243374,5.96181 -17.856492,12.64003 -3.873961,3.39823 -9.026362,7.60037 -13.096875,10.68142 -2.896289,2.19226 -8.730415,5.46085 -9.743067,5.45859 -0.243865,-5.3e-4 -0.807346,-0.22293 -1.252179,-0.49419 z m 6.12056,-3.02535 c 3.230953,-1.99201 11.272205,-8.25171 16.085101,-12.52142 8.518418,-7.55703 13.517038,-11.11812 19.653552,-14.0015 5.8719,-2.75904 8.10154,-4.63101 10.41104,-8.74093 1.99189,-3.54473 3.17223,-4.64869 7.15788,-6.69465 3.86642,-1.98476 6.76763,-3.9056 8.52151,-5.64193 1.9744,-1.95466 2.09653,-2.78238 0.64558,-4.37539 -1.06418,-1.16837 -1.94654,-0.74432 -7.19685,3.45877 -1.74625,1.39794 -4.00843,2.97995 -5.02708,3.51559 -2.44975,1.28815 -5.87465,3.55041 -6.94307,4.58614 -0.47172,0.45727 -1.52412,1.66669 -2.33868,2.68758 -2.46028,3.08351 -3.62251,3.76448 -8.84221,5.18074 -5.633724,1.52859 -7.946544,2.89606 -14.697666,8.69009 -4.529619,3.88747 -6.501462,5.21788 -10.802921,7.28882 -4.284758,2.0629 -7.014272,3.03391 -10.423303,3.70805 -3.612259,0.71432 -3.851237,0.84185 -2.684487,1.43256 1.682942,0.85206 3.635285,2.53634 4.653197,4.0143 0.923971,1.34157 1.012834,1.62433 1.013653,3.22553 7.41e-4,1.42657 -0.157444,2.08933 -0.845097,3.54099 -0.543114,1.14655 -0.728209,1.78594 -0.516999,1.78594 0.180947,0 1.16053,-0.51267 2.17685,-1.13928 z m 1.057127,-4.03899 c -0.518244,-0.51824 -0.529851,-1.01226 -0.03346,-1.42423 0.609131,-0.50553 1.589167,-0.23535 1.68852,0.4655 0.165897,1.17026 -0.853194,1.76059 -1.655057,0.95873 z m 2.848639,-1.70053 c -0.796322,-0.32112 -1.019331,-1.20835 -0.50213,-1.99769 0.538171,-0.82136 1.564041,-0.85065 2.117506,-0.0605 0.544346,0.77716 0.519543,1.15638 -0.117289,1.79321 -0.583748,0.58375 -0.66978,0.59897 -1.498087,0.26495 z m 3.813191,-2.66739 c -0.860017,-0.50092 -0.333961,-2.09547 0.691311,-2.09547 0.276421,0 0.962335,0.84863 0.962335,1.19062 0,0.37586 -0.701586,1.19645 -1.011087,1.18258 -0.09875,-0.004 -0.387898,-0.1294 -0.642559,-0.27773 z m -8.616057,-1.21807 c -0.191305,-0.0765 -0.462359,-0.44039 -0.602342,-0.80857 -0.568059,-1.49411 1.351521,-2.62718 2.258083,-1.33288 0.544347,0.77716 0.519544,1.15638 -0.117288,1.79321 -0.529123,0.52912 -0.884969,0.60967 -1.538453,0.34824 z m 11.380953,-1.1949 c -0.802005,-0.80201 0.289081,-2.23889 1.154621,-1.52055 0.670626,0.55657 0.289902,1.83805 -0.546079,1.83805 -0.160073,0 -0.433917,-0.14288 -0.608542,-0.3175 z m -5.344584,-0.45903 c 0.363803,-0.29607 1.613959,-1.03581 2.778126,-1.64386 3.845932,-2.00876 5.603886,-3.35188 8.672528,-6.62603 2.827393,-3.01674 6.771546,-6.24814 9.718796,-7.9625 1.80449,-1.04964 4.400354,-1.94813 6.611804,-2.28851 3.54167,-0.54513 5.07923,-1.50398 8.26451,-5.15392 2.10898,-2.41663 6.50701,-6.57194 8.62638,-8.15031 0.77701,-0.57867 2.30951,-1.4608 3.40554,-1.96027 1.09604,-0.49948 2.83896,-1.45553 3.87315,-2.12455 1.03419,-0.66902 1.70915,-1.01011 1.4999,-0.75797 -0.47824,0.57624 -2.85979,2.18729 -4.76739,3.225 -0.80037,0.43539 -1.99099,1.1291 -2.64584,1.54158 -1.13163,0.7128 -6.07081,5.55332 -10.75809,10.54319 -2.51236,2.67455 -3.90144,3.43773 -7.27726,3.9982 -1.2129,0.20138 -2.74005,0.55933 -3.39366,0.79545 -3.139954,1.13433 -8.42574,4.83897 -11.604132,8.13297 -2.983365,3.09188 -5.410726,4.92109 -8.506445,6.41029 -1.382448,0.66503 -3.108854,1.51299 -3.836458,1.88435 -1.062284,0.54219 -1.1926,0.56916 -0.661459,0.13689 z m -3.152261,-0.61254 c -0.427187,-1.13131 0.525994,-2.07728 1.544087,-1.53242 0.549442,0.29406 0.692028,0.92017 0.389242,1.70922 -0.25713,0.67007 -1.662061,0.54159 -1.933329,-0.1768 z m 11.635048,-0.71764 c -0.516654,-0.31931 -0.211772,-1.19078 0.449604,-1.28513 0.476214,-0.0679 0.59261,0.0434 0.59261,0.567 0,0.70223 -0.504963,1.05017 -1.042214,0.71813 z m -8.349642,-1.06561 c -0.225573,-0.71072 0.314547,-1.37506 1.034328,-1.27222 0.419763,0.06 0.552319,0.26941 0.552319,0.87266 0,0.66292 -0.116185,0.80719 -0.704892,0.87528 -0.525381,0.0608 -0.749933,-0.0604 -0.881755,-0.47572 z m 10.75777,-0.76426 c -0.194633,-0.12337 -0.313695,-0.5085 -0.264584,-0.85585 0.06679,-0.47238 0.25508,-0.63153 0.747128,-0.63153 0.748115,0 1.030772,0.72289 0.522243,1.33562 -0.365887,0.44087 -0.513498,0.46317 -1.004787,0.15176 z m -7.448535,-0.42568 c -0.43963,-0.52972 -0.146787,-1.19399 0.526371,-1.19399 0.300175,0 0.614889,0.18011 0.699362,0.40024 0.152036,0.3962 -0.313943,1.18726 -0.699362,1.18726 -0.109885,0 -0.346751,-0.17708 -0.526371,-0.39351 z m 2.376851,-1.85738 c -0.292764,-0.35276 -0.281354,-0.48997 0.06996,-0.84128 0.567397,-0.5674 1.31549,-0.25217 1.20697,0.50859 -0.103374,0.72469 -0.8008,0.90639 -1.27693,0.33269 z m 7.05716,-0.0422 c -0.390322,-0.39032 -0.170474,-1.64191 0.315502,-1.79616 1.049205,-0.333 1.840561,0.59441 1.312447,1.53809 -0.241117,0.43086 -1.289045,0.59698 -1.627949,0.25807 z m -4.573765,-1.79532 c -0.184313,-0.48031 0.0834,-0.93871 0.548224,-0.93871 0.404719,0 0.650223,0.50659 0.480835,0.99219 -0.158094,0.45322 -0.848385,0.41735 -1.029059,-0.0535 z m 7.096125,-0.46246 c -0.40812,-0.40812 -0.40812,-1.33813 0,-1.74625 0.961313,-0.96131 2.468549,0.28384 1.817079,1.50112 -0.33096,0.61841 -1.311519,0.75069 -1.817079,0.24513 z m -5.344584,-1.53458 c 0,-0.29398 0.17639,-0.52917 0.396875,-0.52917 0.220486,0 0.396875,0.23519 0.396875,0.52917 0,0.29398 -0.176389,0.52917 -0.396875,0.52917 -0.220485,0 -0.396875,-0.23519 -0.396875,-0.52917 z m 8.353273,-0.94494 c -0.51824,-0.51824 -0.52985,-1.01226 -0.0335,-1.42423 0.60913,-0.50553 1.58917,-0.23535 1.68852,0.4655 0.1659,1.17026 -0.85319,1.76059 -1.65506,0.95873 z m -6.630814,-0.10908 c -0.195143,-0.31575 0.05254,-0.79806 0.409824,-0.79806 0.321945,0 0.324032,0.71612 0.0027,0.91474 -0.135467,0.0837 -0.321088,0.0312 -0.412491,-0.11668 z m 1.33155,-1.57353 c -0.180731,-0.29243 0.236643,-0.60819 0.480962,-0.36387 0.251564,0.25156 0.204679,0.61017 -0.07977,0.61017 -0.136932,0 -0.317468,-0.11084 -0.40119,-0.2463 z m 8.304664,-0.70192 c -0.25211,-0.30378 -0.27142,-0.54032 -0.0702,-0.8599 0.39458,-0.62662 1.18561,-0.71085 1.58221,-0.16848 0.73438,1.00434 -0.71427,1.98962 -1.51203,1.02838 z m -6.714497,-0.61668 c -0.08519,-0.13784 -0.04211,-0.32032 0.09573,-0.40551 0.13784,-0.0852 0.320318,-0.0421 0.405506,0.0957 0.08519,0.13784 0.04211,0.32032 -0.09573,0.4055 -0.13784,0.0852 -0.320318,0.0421 -0.405506,-0.0957 z m 9.920121,-0.93393 c -0.714554,-0.86099 0.46798,-1.89688 1.26059,-1.10426 0.33696,0.33696 0.37147,0.5437 0.14957,0.89607 -0.38634,0.61348 -0.99876,0.7039 -1.41016,0.20819 z m -8.332621,-0.38899 c -0.08519,-0.13784 -0.04211,-0.32032 0.09573,-0.40551 0.13784,-0.0852 0.320317,-0.0421 0.405507,0.0957 0.0852,0.13784 0.0421,0.32032 -0.0957,0.40551 -0.137837,0.0852 -0.320315,0.0421 -0.405503,-0.0957 z m 11.318641,-0.96916 c -0.0881,-0.22956 0.0347,-0.61226 0.27288,-0.85044 0.40102,-0.40102 0.4651,-0.40102 0.86611,0 0.54094,0.54093 0.29265,1.26784 -0.43305,1.26784 -0.30018,0 -0.61785,-0.18783 -0.70594,-0.4174 z m -9.612814,-0.36074 c 0,-0.13693 0.11906,-0.32255 0.26458,-0.41249 0.14552,-0.0899 0.26458,0.0221 0.26458,0.24897 0,0.22687 -0.11906,0.41249 -0.26458,0.41249 -0.14552,0 -0.26458,-0.11204 -0.26458,-0.24897 z m 12.267194,-0.6753 c -0.0916,-0.23882 -0.0397,-0.56109 0.11531,-0.71615 0.40312,-0.40312 1.16692,-0.0347 1.06162,0.5121 -0.11729,0.60904 -0.96511,0.75603 -1.17693,0.20405 z m -10.525454,-0.36314 c -0.11398,-0.18441 -0.13578,-0.40675 -0.0484,-0.49408 0.2368,-0.2368 0.49498,0.11147 0.36708,0.49515 -0.0896,0.26886 -0.15194,0.26865 -0.31863,-0.001 z m 13.074924,-0.82926 c 0,-0.3985 0.13816,-0.54136 0.46303,-0.4788 0.25466,0.049 0.46302,0.26451 0.46302,0.4788 0,0.2143 -0.20836,0.42976 -0.46302,0.4788 -0.32487,0.0626 -0.46303,-0.0803 -0.46303,-0.4788 z m -11.244794,-0.26458 c 0.0899,-0.14552 0.27556,-0.26458 0.41249,-0.26458 0.13694,0 0.24897,0.11906 0.24897,0.26458 0,0.14552 -0.18562,0.26458 -0.41249,0.26458 -0.22687,0 -0.3389,-0.11906 -0.24897,-0.26458 z m 2.16077,-0.70556 c -0.30444,-0.30443 -0.19268,-0.61736 0.22048,-0.61736 0.21828,0 0.39688,0.1786 0.39688,0.39688 0,0.41316 -0.31292,0.52492 -0.61736,0.22048 z m 11.200694,-0.61736 c 0,-0.3985 0.13815,-0.54136 0.46302,-0.4788 0.25466,0.049 0.46302,0.26451 0.46302,0.4788 0,0.2143 -0.20836,0.42976 -0.46302,0.4788 -0.32487,0.0626 -0.46302,-0.0803 -0.46302,-0.4788 z m -9.26042,-0.24897 c 0,-0.71244 0.50053,-0.9514 0.98274,-0.46918 0.48222,0.48221 0.24326,0.98274 -0.46918,0.98274 -0.33196,0 -0.51356,-0.1816 -0.51356,-0.51356 z m 2.46906,-0.433 c -0.0881,-0.22957 0.0347,-0.61227 0.27289,-0.85045 0.40102,-0.40102 0.46509,-0.40102 0.86611,0 0.54094,0.54094 0.29265,1.26784 -0.43306,1.26784 -0.30017,0 -0.61785,-0.18783 -0.70594,-0.41739 z m 2.83954,-0.75283 c -0.41072,-0.49489 -0.1501,-0.94645 0.54626,-0.94645 0.39553,0 0.51027,0.14735 0.4474,0.57459 -0.10565,0.71801 -0.56401,0.88954 -0.99366,0.37186 z m 5.85427,-0.35114 c 0.049,-0.25466 0.2645,-0.46302 0.4788,-0.46302 0.2143,0 0.42976,0.20836 0.4788,0.46302 0.0626,0.32487 -0.0803,0.46303 -0.4788,0.46303 -0.3985,0 -0.54136,-0.13816 -0.4788,-0.46303 z m -3.88682,-0.85989 c -0.10561,-0.17088 -0.073,-0.42975 0.0726,-0.57527 0.17639,-0.17639 0.32859,-0.16102 0.4566,0.0461 0.10561,0.17088 0.073,0.42975 -0.0726,0.57528 -0.17639,0.17639 -0.32859,0.16102 -0.4566,-0.0461 z m 5.27742,-0.55222 c -0.27266,-0.44117 0.34057,-0.94708 0.70556,-0.58208 0.30531,0.3053 0.11423,0.86972 -0.29444,0.86972 -0.12835,0 -0.31335,-0.12944 -0.41112,-0.28764 z m -4.0868,-0.7707 c 0,-0.14552 0.18562,-0.26458 0.41249,-0.26458 0.22687,0 0.33891,0.11906 0.24897,0.26458 -0.0899,0.14552 -0.27556,0.26459 -0.41249,0.26459 -0.13693,0 -0.24897,-0.11907 -0.24897,-0.26459 z m 5.46086,-0.97733 c -0.29796,-0.29797 -0.18147,-0.61017 0.22768,-0.61017 0.21828,0 0.39688,0.11204 0.39688,0.24897 0,0.33363 -0.41317,0.57258 -0.62456,0.3612 z m 1.94747,-6.431 c 0,-0.14552 0.11907,-0.26458 0.26459,-0.26458 0.14552,0 0.26458,0.11906 0.26458,0.26458 0,0.14552 -0.11906,0.26458 -0.26458,0.26458 -0.14552,0 -0.26459,-0.11906 -0.26459,-0.26458 z m 1.19063,-0.79375 c -0.0899,-0.14552 -0.0374,-0.26458 0.11668,-0.26458 0.15411,0 0.28019,0.11906 0.28019,0.26458 0,0.14552 -0.0525,0.26458 -0.11667,0.26458 -0.0642,0 -0.19026,-0.11906 -0.2802,-0.26458 z m 8.59896,-2.38125 c 0,-0.14552 0.18562,-0.26458 0.41249,-0.26458 0.22687,0 0.3389,0.11906 0.24897,0.26458 -0.0899,0.14552 -0.27556,0.26458 -0.41249,0.26458 -0.13694,0 -0.24897,-0.11906 -0.24897,-0.26458 z m 1.32291,-0.92604 c 0,-0.21828 0.17859,-0.39688 0.39687,-0.39688 0.21828,0 0.39688,0.1786 0.39688,0.39688 0,0.21828 -0.1786,0.39687 -0.39688,0.39687 -0.21828,0 -0.39687,-0.17859 -0.39687,-0.39687 z m -3.96874,-0.26459 c 0,-0.21828 0.11906,-0.39687 0.26458,-0.39687 0.14552,0 0.26458,0.17859 0.26458,0.39687 0,0.21829 -0.11906,0.39688 -0.26458,0.39688 -0.14552,0 -0.26458,-0.17859 -0.26458,-0.39688 z m 5.42394,-0.66145 c -0.0899,-0.14552 0.0221,-0.26459 0.24897,-0.26459 0.22687,0 0.41249,0.11907 0.41249,0.26459 0,0.14552 -0.11203,0.26458 -0.24897,0.26458 -0.13693,0 -0.32255,-0.11906 -0.41249,-0.26458 z m -4.10103,-0.39688 c 0,-0.21828 0.1786,-0.39687 0.39688,-0.39687 0.21828,0 0.39687,0.17859 0.39687,0.39687 0,0.21828 -0.17859,0.39688 -0.39687,0.39688 -0.21828,0 -0.39688,-0.1786 -0.39688,-0.39688 z m 1.38355,-0.97565 c 0.16353,-0.4906 0.73311,-0.57197 0.73311,-0.10473 0,0.23041 -0.18851,0.41892 -0.41891,0.41892 -0.23041,0 -0.3718,-0.14138 -0.3142,-0.31419 z m 1.52686,-1.16306 c 0,-0.23041 0.14138,-0.3718 0.31419,-0.3142 0.4906,0.16354 0.57197,0.73312 0.10473,0.73312 -0.23041,0 -0.41892,-0.18852 -0.41892,-0.41892 z m 1.49211,-0.55841 c -0.29797,-0.29797 -0.18147,-0.61017 0.22768,-0.61017 0.21828,0 0.39688,0.11204 0.39688,0.24897 0,0.33363 -0.41318,0.57258 -0.62456,0.3612 z m 1.01322,-0.88804 c -0.25141,-0.40679 0.093,-0.66926 0.43255,-0.32967 0.19002,0.19002 0.19458,0.33802 0.0139,0.4497 -0.14814,0.0916 -0.34903,0.0376 -0.44642,-0.12003 z m -65.529077,49.17287 c 0.433031,-0.43303 0.404034,-3.46114 -0.0434,-4.532 -0.39395,-0.94286 -1.833597,-2.29425 -2.444075,-2.29425 -1.025823,0 -1.114364,3.05847 -0.143092,4.94284 0.977486,1.89643 1.933247,2.58073 2.630567,1.88341 z m 16.072039,4.05894 c -0.304574,-0.95963 0.430828,-1.79366 1.290629,-1.46372 1.042018,0.39986 0.742566,1.95561 -0.376418,1.95561 -0.506569,0 -0.809889,-0.1632 -0.914211,-0.49189 z m -4.490848,-0.98222 c -0.632386,-0.63238 -0.534477,-2.11691 0.172264,-2.61193 0.791443,-0.55435 1.422104,-0.5184 2.057795,0.11729 0.661104,0.66111 0.683713,1.89479 0.04531,2.47254 -0.61116,0.55309 -1.733482,0.56399 -2.275371,0.0221 z m 13.088525,-1.02672 c -0.508529,-0.61274 -0.225872,-1.33563 0.522243,-1.33563 0.492048,0 0.680336,0.15916 0.747127,0.63154 0.132403,0.93641 -0.69546,1.39561 -1.26937,0.70409 z m 1.864995,-0.10116 c -0.208092,-0.38883 -0.182816,-0.59555 0.10168,-0.83166 0.607882,-0.50449 1.330072,-0.21843 1.330072,0.52686 0,0.85039 -1.02318,1.06821 -1.431752,0.3048 z m 2.103802,0.10122 c -0.27691,-0.33366 -0.27691,-0.48563 0,-0.81929 0.53048,-0.63918 1.44461,-0.37996 1.44461,0.40964 0,0.78961 -0.91413,1.04883 -1.44461,0.40965 z m 2.11828,0.002 c -0.71455,-0.86099 0.46798,-1.89688 1.26059,-1.10426 0.33696,0.33696 0.37147,0.5437 0.14957,0.89607 -0.38634,0.61348 -0.99876,0.7039 -1.41016,0.20819 z m 2.1651,-0.1922 c -0.801,-0.801 0.2399,-1.8339 1.15958,-1.15068 0.39845,0.29601 0.44028,0.46799 0.20663,0.84965 -0.3666,0.59883 -0.94169,0.72555 -1.36621,0.30103 z m -10.548295,-0.35159 c -0.249925,-0.65129 0.109628,-1.19062 0.79375,-1.19062 0.352798,0 0.709986,0.17859 0.79375,0.39687 0.249926,0.6513 -0.109627,1.19063 -0.79375,1.19063 -0.3528,0 -0.709988,-0.1786 -0.79375,-0.39688 z m 12.664959,0.0871 c -0.502414,-0.50241 -0.385274,-1.223 0.23058,-1.41847 0.70404,-0.22345 1.10183,0.16607 0.98795,0.96743 -0.10015,0.70481 -0.73118,0.93839 -1.21853,0.45104 z M 85.763803,165.6399 c -0.27691,-0.33366 -0.27691,-0.48564 0,-0.81929 0.530477,-0.63919 1.444612,-0.37997 1.444612,0.40964 0,0.78961 -0.914135,1.04883 -1.444612,0.40965 z m 16.404167,0 c -0.27691,-0.33366 -0.27691,-0.48564 0,-0.81929 0.53048,-0.63919 1.44462,-0.37997 1.44462,0.40964 0,0.78961 -0.91414,1.04883 -1.44462,0.40965 z m -18.21393,-0.46257 c -0.463382,-0.46338 -0.388964,-0.94855 0.193292,-1.26016 0.385568,-0.20635 0.612595,-0.17157 0.926042,0.14188 0.228387,0.22839 0.415249,0.50199 0.415249,0.60802 0,0.2934 -0.597802,0.82776 -0.926041,0.82776 -0.160073,0 -0.433917,-0.14287 -0.608542,-0.3175 z m 20.3228,-0.076 c -0.17962,-0.21643 -0.25746,-0.57362 -0.17299,-0.79375 0.19934,-0.51947 1.46397,-0.51947 1.66331,0 0.17535,0.45695 -0.33622,1.18725 -0.83166,1.18725 -0.18264,0 -0.47904,-0.17707 -0.65866,-0.3935 z m 2.01281,-0.5391 c -0.53944,-0.53944 -0.13284,-1.44865 0.64784,-1.44865 0.63179,0 0.96275,0.70334 0.6009,1.27699 -0.37933,0.60137 -0.76589,0.65451 -1.24874,0.17166 z m -24.187693,-0.17865 c -0.448234,-0.44823 -0.394143,-1.18397 0.101014,-1.37398 0.665443,-0.25535 0.867789,-0.19422 1.159152,0.35019 0.206349,0.38557 0.171566,0.6126 -0.141881,0.92604 -0.498482,0.49849 -0.699943,0.5161 -1.118285,0.0977 z m 12.184059,-0.13314 c -0.45204,-0.1676 -0.41846,-1.04657 0.0468,-1.22511 0.20764,-0.0797 0.52483,0.0326 0.70487,0.24955 0.26218,0.31591 0.25286,0.46448 -0.0468,0.7463 -0.20578,0.19353 -0.52298,0.2967 -0.70488,0.22926 z m -2.800233,-0.45605 c -0.22102,-0.57597 0.520115,-1.09094 0.998573,-0.69386 0.48158,0.39968 0.24261,1.07139 -0.381149,1.07139 -0.259903,0 -0.537745,-0.16989 -0.617424,-0.37753 z m 4.947113,-0.0176 c -0.0916,-0.23882 -0.0397,-0.56108 0.11531,-0.71615 0.40312,-0.40312 1.16692,-0.0347 1.06162,0.5121 -0.11729,0.60904 -0.96511,0.75603 -1.17693,0.20405 z m 11.820444,0.0109 c -0.50853,-0.61274 -0.22587,-1.33563 0.52225,-1.33563 0.49204,0 0.68033,0.15916 0.74712,0.63154 0.13241,0.93641 -0.69546,1.39561 -1.26937,0.70409 z m -19.228775,-0.27553 c -0.09164,-0.23882 -0.03975,-0.56108 0.115308,-0.71614 0.403122,-0.40312 1.166921,-0.0347 1.06162,0.5121 -0.11729,0.60903 -0.96511,0.75602 -1.176928,0.20404 z m 9.801271,0.0305 c -0.21415,-0.55805 0.0864,-0.95826 0.71972,-0.95826 0.39972,0 0.510944,0.14732 0.44741,0.59261 -0.0987,0.69161 -0.94081,0.95545 -1.16713,0.36565 z m -18.507287,-0.27799 c -0.511608,-0.38008 -0.510605,-0.39315 0.07579,-0.98735 0.564273,-0.57178 0.617456,-0.57898 1.053849,-0.14259 0.348072,0.34808 0.391889,0.56691 0.180585,0.9019 -0.389966,0.61822 -0.710049,0.67393 -1.310229,0.22804 z m 6.393132,-0.29429 c -0.223369,-0.58209 0.01794,-0.91515 0.663043,-0.91515 0.399714,0 0.510934,0.14732 0.447405,0.59261 -0.101256,0.70973 -0.875564,0.93464 -1.110448,0.32255 z m 14.476219,-0.007 c -0.0875,-0.22806 -0.0323,-0.54153 0.12281,-0.69659 0.41155,-0.41154 1.11125,-0.0503 1.11125,0.57378 0,0.65252 -0.99287,0.75133 -1.23406,0.12281 z m 8.97312,-0.0221 c -0.44074,-0.1819 -0.42126,-1.0108 0.0326,-1.38748 0.58365,-0.48439 1.26437,-0.0598 1.17233,0.73131 -0.0787,0.67633 -0.54319,0.92929 -1.20494,0.65617 z m -6.57268,-0.45705 c -0.21415,-0.55802 0.0864,-0.95823 0.71972,-0.95823 0.39972,0 0.51094,0.14732 0.44741,0.5926 -0.0987,0.69162 -0.94081,0.95545 -1.16713,0.36566 z m -18.981661,-0.0763 c -0.31321,-0.31321 -0.187375,-1.0857 0.201142,-1.23478 0.587137,-0.22531 1.08902,0.52242 0.680802,1.01429 -0.35841,0.43186 -0.608139,0.4943 -0.881944,0.22049 z m 21.351221,-0.74788 c -0.0916,-0.23882 -0.0397,-0.56109 0.11531,-0.71615 0.40312,-0.40312 1.16692,-0.0347 1.06162,0.5121 -0.11729,0.60904 -0.96511,0.75603 -1.17693,0.20405 z m 5.92292,0.10936 c -0.92248,-0.5373 -0.19664,-1.76935 0.84719,-1.43805 0.60006,0.19045 0.71565,0.91504 0.22437,1.40632 -0.37912,0.37912 -0.47047,0.38183 -1.07156,0.0317 z m -29.567197,-0.91316 c 0,-0.45746 0.631484,-0.78467 1.034108,-0.53583 0.413661,0.25565 0.02529,0.94101 -0.533249,0.94101 -0.275472,0 -0.500859,-0.18233 -0.500859,-0.40518 z m 26.006067,-0.15292 c -0.41923,-0.41923 -0.12346,-1.0294 0.49898,-1.0294 0.38251,0 0.497,0.15132 0.43471,0.57459 -0.0995,0.67625 -0.51154,0.87696 -0.93369,0.45481 z m 18.2596,-0.34689 c -2.04718,-0.66307 -4.08294,-1.99286 -5.04118,-3.29296 -0.73598,-0.99856 -0.75317,-1.51978 -0.0623,-1.88951 0.45723,-0.24471 0.72991,-0.10045 1.91823,1.01476 1.63227,1.53186 2.43647,1.97456 4.61015,2.53782 3.01213,0.78052 4.17224,0.40066 3.52782,-1.15511 -0.55477,-1.33934 -3.08615,-3.6101 -5.32,-4.77227 -2.21747,-1.15366 -2.63817,-1.81133 -1.53599,-2.40119 1.14274,-0.61158 5.54571,2.19132 7.60195,4.83934 0.93674,1.20635 1.20272,1.78421 1.30337,2.83169 0.11486,1.19534 0.0525,1.38997 -0.67944,2.12194 -0.74406,0.74407 -0.94447,0.80499 -2.61218,0.79406 -1.14179,-0.007 -2.50678,-0.23872 -3.71041,-0.62857 z m -13.20661,-0.002 c -0.26196,-0.68265 0.10055,-1.20918 0.83251,-1.20918 0.59373,0 0.67593,0.0991 0.60362,0.72761 -0.0965,0.83891 -1.16192,1.19616 -1.43613,0.48157 z m -3.09272,-1.03473 c -0.2035,-0.53032 0.23155,-1.068 0.71426,-0.88277 0.61049,0.23427 0.54784,1.23749 -0.0773,1.23749 -0.27548,0 -0.56212,-0.15963 -0.63698,-0.35472 z m -23.901228,-0.30497 c -0.09164,-0.23882 -0.03975,-0.56108 0.115308,-0.71615 0.403122,-0.40312 1.166921,-0.0347 1.06162,0.5121 -0.11729,0.60904 -0.965111,0.75603 -1.176928,0.20405 z m 28.666198,0.22988 c -0.33778,-0.33779 -0.19651,-1.36222 0.20932,-1.51796 0.7071,-0.27134 1.2245,0.11807 1.1388,0.85709 -0.079,0.68131 -0.91692,1.09207 -1.34812,0.66087 z m -2.50266,-1.07928 c -0.45204,-0.16759 -0.41846,-1.04657 0.0468,-1.22511 0.20764,-0.0797 0.52483,0.0326 0.70487,0.24956 0.26218,0.3159 0.25286,0.46447 -0.0468,0.7463 -0.20578,0.19353 -0.52298,0.29669 -0.70488,0.22925 z m 3.73371,-0.73998 c -0.24993,-0.65129 0.10962,-1.19062 0.79375,-1.19062 0.68412,0 1.04367,0.53933 0.79375,1.19062 -0.0838,0.21828 -0.44096,0.39688 -0.79375,0.39688 -0.3528,0 -0.70999,-0.1786 -0.79375,-0.39688 z m -2.30061,-1.30357 c -0.0797,-0.20764 0.0326,-0.52483 0.24956,-0.70487 0.31753,-0.26354 0.47531,-0.24647 0.80932,0.0876 0.2282,0.2282 0.33426,0.54539 0.2357,0.70488 -0.25725,0.41623 -1.12375,0.35763 -1.29458,-0.0876 z m -22.109156,-0.12923 c -0.516302,-0.32658 -0.159244,-1.08074 0.511672,-1.08074 0.42009,0 0.53522,0.14036 0.47133,0.57459 -0.0971,0.65985 -0.4515,0.84233 -0.983002,0.50615 z m 25.811396,-0.14038 c -0.27641,-0.72032 0.10698,-1.23946 0.85159,-1.15311 0.54221,0.0629 0.6938,0.22498 0.6938,0.74192 0,0.51693 -0.15159,0.67904 -0.6938,0.74192 -0.4395,0.051 -0.75164,-0.0703 -0.85159,-0.33073 z m -28.573013,-0.0584 c -0.09701,-0.097 -0.17639,-0.39467 -0.17639,-0.66146 0,-0.55389 0.945181,-0.68304 1.129601,-0.15434 0.253709,0.72733 -0.444296,1.32471 -0.953211,0.8158 z m 26.546533,-1.64168 c 0,-0.64511 0.33306,-0.88641 0.91515,-0.66304 0.6121,0.23488 0.38719,1.00919 -0.32254,1.11044 -0.44529,0.0635 -0.59261,-0.0477 -0.59261,-0.4474 z m 3.2778,0.11683 c -0.26196,-0.68265 0.10055,-1.20918 0.83251,-1.20918 0.59373,0 0.67593,0.0991 0.60362,0.7276 -0.0965,0.83891 -1.16192,1.19617 -1.43613,0.48158 z m -25.586114,-0.78006 c -0.15645,-0.4077 0.2856,-0.95829 0.76937,-0.95829 0.37252,0 0.60681,0.52412 0.44354,0.99219 -0.15557,0.44597 -1.03823,0.4213 -1.21291,-0.0339 z m 3.88383,-0.29506 c -0.0916,-0.23882 -0.0398,-0.56108 0.11531,-0.71614 0.40312,-0.40313 1.16692,-0.0347 1.06162,0.51209 -0.11729,0.60904 -0.96511,0.75603 -1.17693,0.20405 z m 23.014264,-0.53361 c -0.38808,-0.2884 -0.42868,-0.46177 -0.19713,-0.84173 0.61444,-1.00829 1.9466,-0.5218 1.53171,0.55936 -0.218,0.56809 -0.78786,0.68866 -1.33458,0.28237 z m -2.98535,-0.24151 c -0.41072,-0.49489 -0.1501,-0.94644 0.54625,-0.94644 0.39554,0 0.51027,0.14735 0.44741,0.57459 -0.10565,0.71801 -0.56402,0.88954 -0.99366,0.37185 z m 3.97413,-1.55913 c -0.45954,-0.45954 -0.3318,-1.18948 0.2399,-1.37093 0.70713,-0.22444 1.0607,0.0348 1.0607,0.77775 0,0.68536 -0.82991,1.06387 -1.3006,0.59318 z m -2.83637,-0.57617 c -0.0916,-0.23881 -0.0397,-0.56108 0.11531,-0.71614 0.40312,-0.40312 1.16692,-0.0347 1.06162,0.5121 -0.11729,0.60904 -0.96511,0.75603 -1.17693,0.20404 z m -55.091402,-1.05698 c -0.564389,-0.50989 -1.363979,-1.66436 -1.786699,-2.57969 -0.709659,-1.53663 -0.76351,-1.87739 -0.742681,-4.69947 0.03403,-4.61098 0.148107,-4.81172 3.820829,-6.72348 1.652657,-0.86025 4.916818,-2.36229 7.25369,-3.33786 4.196421,-1.75187 5.362451,-2.18661 15.49365,-5.77653 10.406009,-3.6873 14.884063,-5.95072 19.976463,-10.09704 2.53829,-2.06671 4.81187,-3.50897 7.93708,-5.03494 3.16786,-1.54678 8.61437,-3.41666 9.96772,-3.42209 1.54077,-0.006 3.35937,1.76435 2.99416,2.91501 -0.16987,0.53523 -0.76372,0.90668 -8.00528,5.00723 -5.12708,2.90321 -5.92999,3.51675 -10.90972,8.33663 -4.37279,4.23241 -5.57108,4.97959 -10.774554,6.71826 -5.01439,1.67551 -9.008057,3.99665 -15.602021,9.068 -1.482998,1.14055 -3.910244,2.86909 -5.393879,3.84118 -2.822914,1.84959 -12.092185,6.70771 -12.798296,6.70771 -0.224895,0 -0.868603,-0.41531 -1.430462,-0.92292 z m 6.840872,-2.85851 c 1.673489,-0.87479 3.697552,-2.01813 4.497916,-2.54077 0.800365,-0.52263 1.663568,-1.03651 1.91823,-1.14195 0.375719,-0.15557 0.464116,-0.53005 0.468831,-1.98618 0.0097,-2.99709 1.037406,-4.5462 3.566065,-5.37531 1.287288,-0.42209 3.944636,-0.42174 5.026522,5.2e-4 0.70081,0.27362 0.835533,0.24591 1.156751,-0.23787 0.199958,-0.30115 0.525322,-0.54755 0.723026,-0.54755 0.197708,0 1.040257,-0.4355 1.872332,-0.96777 1.841283,-1.17785 6.304553,-3.42094 7.308153,-3.67283 0.56288,-0.14127 0.69413,-0.29766 0.57222,-0.68178 -0.18982,-0.59807 0.28162,-0.67666 0.50874,-0.0848 0.24948,0.65013 0.62879,0.21217 0.82571,-0.95338 0.22693,-1.34319 1.19389,-2.50857 2.416164,-2.91196 0.94871,-0.3131 3.52892,-0.2333 4.39507,0.13593 0.33621,0.14332 0.46302,0.0749 0.46302,-0.24985 0,-0.24598 0.14883,-0.39378 0.33073,-0.32846 0.1819,0.0653 1.75948,-1.27135 3.50573,-2.97038 1.74625,-1.69904 3.82985,-3.56887 4.63021,-4.15518 1.36302,-0.99848 6.4194,-3.96782 10.78,-6.33052 1.05405,-0.57111 1.91726,-1.16646 1.91823,-1.32299 0.001,-0.15654 -0.28923,-0.55799 -0.64489,-0.89212 -0.51426,-0.48312 -0.82867,-0.57337 -1.53558,-0.44075 -2.70104,0.50672 -8.57079,2.85643 -11.53564,4.61781 -1.7918,1.06449 -1.80849,1.085 -1.82601,2.24404 -0.0394,2.60748 -1.75452,3.99297 -4.89517,3.95453 -0.98227,-0.012 -1.78594,0.0862 -1.78594,0.21833 0,0.1321 -0.19789,0.24018 -0.43977,0.24018 -0.24187,0 -1.3432,0.52333 -2.44739,1.16294 -1.1042,0.63962 -3.138724,1.67474 -4.521174,2.30027 -1.38245,0.62554 -2.55388,1.16451 -2.60318,1.19771 -0.0493,0.0332 -0.20398,0.57567 -0.34373,1.20546 -0.61437,2.76879 -2.539982,4.14093 -5.397363,3.84603 -0.832429,-0.0859 -1.984933,-0.44376 -2.679544,-0.83199 -1.116102,-0.6238 -1.245879,-0.64427 -1.539425,-0.24283 -0.219324,0.29995 -0.378464,0.34473 -0.503878,0.14181 -0.176895,-0.28622 -1.189492,0.0336 -7.834966,2.47431 -1.091406,0.40085 -2.138868,0.92002 -2.327691,1.1537 -0.188824,0.23369 -0.564374,0.38957 -0.834556,0.3464 -0.392217,-0.0627 -0.52932,0.15067 -0.680157,1.05833 -0.326067,1.9621 -1.381296,3.58567 -2.815538,4.33197 -1.022971,0.5323 -3.376347,0.74473 -4.577171,0.41316 -0.571042,-0.15767 -1.093832,-0.2311 -1.161756,-0.16318 -0.187409,0.18741 0.796314,1.1909 1.027422,1.04807 0.110824,-0.0685 0.268305,0.0496 0.349958,0.26235 0.08165,0.21278 0.04621,0.45007 -0.07877,0.52732 -0.124978,0.0772 -0.05302,0.70613 0.159909,1.39753 0.226983,0.73705 0.39338,2.38231 0.402223,3.97703 0.01786,3.22126 -0.360329,3.15127 4.186128,0.77468 z m -2.743163,-1.80519 c -0.65668,-0.93755 6.09e-4,-2.08629 1.193732,-2.08629 0.993822,0 1.523937,0.98459 1.068406,1.98437 -0.391728,0.85975 -1.690352,0.91826 -2.262138,0.10192 z m 3.813582,-1.14569 c -0.752543,-0.90676 0.285361,-2.43964 1.244685,-1.83827 0.944123,0.59184 0.604507,2.22058 -0.463021,2.22058 -0.255405,0 -0.607154,-0.17204 -0.781664,-0.38231 z m 4.34266,-1.22279 c -0.243508,-0.394 0.03882,-0.60822 0.545405,-0.41383 0.23378,0.0897 0.350951,0.28301 0.260379,0.42956 -0.214465,0.34702 -0.58608,0.33976 -0.805784,-0.0157 z m -0.385996,-1.43761 c 0,-0.21828 0.178594,-0.39687 0.396875,-0.39687 0.218281,0 0.396875,0.17859 0.396875,0.39687 0,0.21829 -0.178594,0.39688 -0.396875,0.39688 -0.218281,0 -0.396875,-0.17859 -0.396875,-0.39688 z m -2.369036,-0.24986 c -0.714558,-0.86099 0.467974,-1.89688 1.260588,-1.10427 0.33696,0.33696 0.371467,0.5437 0.149563,0.89608 -0.386334,0.61348 -0.998752,0.70389 -1.410151,0.20819 z m -6.759089,-0.14701 c -0.10561,-0.17088 -0.07296,-0.42975 0.07257,-0.57527 0.176389,-0.17639 0.328589,-0.16102 0.456601,0.0461 0.105609,0.17088 0.07295,0.42975 -0.07257,0.57528 -0.176389,0.17638 -0.328589,0.16102 -0.456601,-0.0461 z m 1.322917,0 c -0.10561,-0.17088 -0.07296,-0.42975 0.07257,-0.57527 0.176388,-0.17639 0.328588,-0.16102 0.4566,0.0461 0.10561,0.17088 0.07296,0.42975 -0.07257,0.57528 -0.176388,0.17638 -0.328589,0.16102 -0.4566,-0.0461 z m 1.057178,-0.26645 c -0.09057,-0.14655 0.0266,-0.33985 0.260379,-0.42956 0.506585,-0.1944 0.788913,0.0198 0.545405,0.41382 -0.219704,0.35549 -0.591319,0.36275 -0.805784,0.0157 z m 1.326739,-0.2584 c -0.195143,-0.31575 0.05254,-0.79807 0.409823,-0.79807 0.321946,0 0.324034,0.71613 0.0027,0.91474 -0.135466,0.0837 -0.321086,0.0312 -0.41249,-0.11667 z m 5.450147,-0.10184 c -0.235883,-0.28422 -0.240747,-0.43298 -0.01865,-0.57024 0.431515,-0.2667 0.966853,0.3257 0.61358,0.67898 -0.19134,0.19134 -0.373524,0.15804 -0.59493,-0.10874 z m -4.460627,-0.76237 c 0.06063,-0.1819 0.268993,-0.33073 0.463021,-0.33073 0.194028,0 0.402387,0.14883 0.463021,0.33073 0.06558,0.19674 -0.122002,0.33073 -0.463021,0.33073 -0.341019,0 -0.528601,-0.13399 -0.463021,-0.33073 z m 1.110231,-0.48608 c -0.272658,-0.44117 0.340574,-0.94708 0.70557,-0.58208 0.305309,0.30531 0.114226,0.86972 -0.294447,0.86972 -0.128344,0 -0.313349,-0.12944 -0.411123,-0.28764 z m 3.453832,0.0231 c -0.192935,-0.31218 0.05733,-0.79375 0.41249,-0.79375 0.136932,0 0.248968,0.23812 0.248968,0.52916 0,0.55803 -0.384937,0.71201 -0.661458,0.26459 z m -1.455209,-0.52966 c 0,-0.14552 0.178594,-0.26458 0.396875,-0.26458 0.218282,0 0.396875,0.11906 0.396875,0.26458 0,0.14552 -0.178593,0.26458 -0.396875,0.26458 -0.218281,0 -0.396875,-0.11906 -0.396875,-0.26458 z m -1.19178,-0.53104 c -0.09057,-0.14655 0.0266,-0.33985 0.26038,-0.42956 0.506584,-0.19439 0.788912,0.0198 0.545405,0.41383 -0.219705,0.35549 -0.59132,0.36275 -0.805785,0.0157 z m 3.043864,-0.395 c 0,-0.21828 0.178594,-0.39688 0.396875,-0.39688 0.218281,0 0.396875,0.1786 0.396875,0.39688 0,0.21828 -0.178594,0.39687 -0.396875,0.39687 -0.218281,0 -0.396875,-0.17859 -0.396875,-0.39687 z m -2.340373,-0.77726 c 0.05028,-0.24272 0.210477,-0.43503 0.355998,-0.42734 0.392718,0.0207 0.32057,0.61267 -0.09141,0.75 -0.222546,0.0742 -0.32173,-0.0468 -0.264583,-0.32266 z m 3.134123,-0.28108 c 0,-0.21828 0.135702,-0.39687 0.301561,-0.39687 0.165858,0 0.455499,-0.20836 0.643646,-0.46302 0.278693,-0.37722 0.405829,-0.40013 0.686064,-0.12363 0.281461,0.27771 0.236612,0.36747 -0.246772,0.49388 -0.324912,0.085 -0.590749,0.31919 -0.590749,0.5205 0,0.20131 -0.178594,0.36602 -0.396875,0.36602 -0.218281,0 -0.396875,-0.17859 -0.396875,-0.39688 z m -2.910417,-1.05833 c 0,-0.21828 0.178594,-0.39687 0.396875,-0.39687 0.218281,0 0.396875,0.17859 0.396875,0.39687 0,0.21828 -0.178594,0.39688 -0.396875,0.39688 -0.218281,0 -0.396875,-0.1786 -0.396875,-0.39688 z M 78.462917,134.78 c -0.272659,-0.44118 0.340574,-0.94708 0.705569,-0.58209 0.305309,0.30531 0.114226,0.86972 -0.294446,0.86972 -0.128344,0 -0.31335,-0.12943 -0.411123,-0.28763 z m 7.466679,-0.15334 c -0.30444,-0.30444 -0.19268,-0.61736 0.220486,-0.61736 0.218281,0 0.396875,0.17859 0.396875,0.39687 0,0.41317 -0.312923,0.52493 -0.617361,0.22049 z m -10.442223,-0.40569 c -0.754712,-0.75472 0.112124,-2.02382 1.118542,-1.63762 0.777912,0.29851 0.34578,1.95512 -0.51,1.95512 -0.160073,0 -0.433917,-0.14288 -0.608542,-0.3175 z m 4.221294,-0.0629 c 0.05028,-0.24273 0.210477,-0.43504 0.355998,-0.42735 0.392718,0.0207 0.32057,0.61267 -0.09141,0.75 -0.222547,0.0742 -0.32173,-0.0468 -0.264584,-0.32265 z m -5.957098,-0.0678 c -0.316219,-0.31622 -0.170844,-0.87475 0.227679,-0.87475 0.218281,0 0.396875,0.17157 0.396875,0.38126 0,0.44202 -0.377634,0.74041 -0.624554,0.49349 z m 10.822312,-0.0627 c -0.08372,-0.13546 -0.03122,-0.32109 0.116676,-0.41249 0.315748,-0.19514 0.798066,0.0525 0.798066,0.40982 0,0.32195 -0.716126,0.32404 -0.914742,0.003 z m -3.790035,-0.32374 c 0.137329,-0.41199 0.729259,-0.48413 0.750003,-0.0914 0.0077,0.14552 -0.18462,0.30572 -0.427347,0.356 -0.275885,0.0572 -0.396838,-0.042 -0.322656,-0.26458 z m 1.397486,0.0409 c -0.284919,-0.46101 0.137395,-0.85431 0.549808,-0.51204 0.203724,0.16907 0.30516,0.41298 0.225414,0.54202 -0.193008,0.31229 -0.572763,0.2976 -0.775222,-0.03 z m 1.190625,-0.1323 c 0,-0.21828 0.178593,-0.39687 0.396875,-0.39687 0.218281,0 0.396875,0.17859 0.396875,0.39687 0,0.21829 -0.178594,0.39688 -0.396875,0.39688 -0.218282,0 -0.396875,-0.17859 -0.396875,-0.39688 z m -5.188483,-1.03877 c -0.240717,-0.6273 0.09988,-1.26083 0.62362,-1.15997 0.2929,0.0564 0.463821,0.3304 0.463821,0.74354 0,0.75422 -0.835098,1.07402 -1.087441,0.41643 z m 8.010706,-0.0637 c -0.30444,-0.30443 -0.19268,-0.61736 0.220485,-0.61736 0.218281,0 0.396875,0.1786 0.396875,0.39688 0,0.41316 -0.312923,0.52492 -0.61736,0.22048 z m 2.20486,-0.2361 c 0,-0.22687 0.121005,-0.3377 0.268899,-0.2463 0.147894,0.0914 0.200401,0.27703 0.116676,0.41249 -0.226809,0.36699 -0.385575,0.29856 -0.385575,-0.16619 z m -6.813021,-0.30145 c -0.546481,-0.20473 -0.396545,-1.13814 0.182823,-1.13814 0.282453,0 0.576296,0.10152 0.652983,0.2256 0.207055,0.33503 -0.453188,1.05588 -0.835806,0.91254 z m 2.135954,-0.2388 c -0.187182,-0.48779 0.452692,-0.99622 0.807383,-0.64153 0.288791,0.2888 0.02374,1.06511 -0.363649,1.06511 -0.154655,0 -0.354335,-0.19062 -0.443734,-0.42358 z m 5.349826,-0.61647 c -0.180732,-0.29243 0.236643,-0.60819 0.480962,-0.36387 0.251563,0.25156 0.204679,0.61017 -0.07977,0.61017 -0.136932,0 -0.317468,-0.11084 -0.40119,-0.2463 z m 1.098322,0.0771 c -0.211383,-0.21138 0.02757,-0.62455 0.361202,-0.62455 0.136932,0 0.248967,0.17859 0.248967,0.39687 0,0.40916 -0.312198,0.52565 -0.610169,0.22768 z m -2.300248,-0.35997 c 0,-0.14552 0.178594,-0.26458 0.396875,-0.26458 0.218282,0 0.396875,0.11906 0.396875,0.26458 0,0.14552 -0.178593,0.26458 -0.396875,0.26458 -0.218281,0 -0.396875,-0.11906 -0.396875,-0.26458 z m 3.318593,0.0183 c -0.180732,-0.29242 0.236643,-0.60818 0.480962,-0.36387 0.251563,0.25157 0.204679,0.61017 -0.07977,0.61017 -0.136933,0 -0.317468,-0.11083 -0.40119,-0.2463 z m -4.316291,-0.33247 c 0.163531,-0.4906 0.733115,-0.57197 0.733115,-0.10473 0,0.2304 -0.188516,0.41892 -0.418923,0.41892 -0.230409,0 -0.371795,-0.14139 -0.314192,-0.31419 z m 5.388871,0.0909 c -0.0916,-0.14814 -0.0375,-0.34903 0.12003,-0.44642 0.40679,-0.25141 0.66926,0.093 0.32967,0.43255 -0.19002,0.19002 -0.33801,0.19458 -0.4497,0.0139 z m -6.243256,-0.70279 c 0,-0.21828 0.119063,-0.39688 0.264583,-0.39688 0.145521,0 0.264584,0.1786 0.264584,0.39688 0,0.21828 -0.119063,0.39687 -0.264584,0.39687 -0.14552,0 -0.264583,-0.17859 -0.264583,-0.39687 z m 7.143746,0 c 0,-0.21828 0.16586,-0.39688 0.36857,-0.39688 0.20271,0 0.44,-0.18614 0.5273,-0.41364 0.0873,-0.22751 0.27863,-0.33954 0.42518,-0.24897 0.39006,0.24107 0.32509,0.66261 -0.10211,0.66261 -0.20272,0 -0.4371,0.1786 -0.52087,0.39688 -0.0838,0.21828 -0.27509,0.39687 -0.42518,0.39687 -0.15009,0 -0.27289,-0.17859 -0.27289,-0.39687 z m -8.202079,-0.66146 c 0,-0.14552 0.178593,-0.26458 0.396875,-0.26458 0.218281,0 0.396875,0.11906 0.396875,0.26458 0,0.14552 -0.178594,0.26458 -0.396875,0.26458 -0.218282,0 -0.396875,-0.11906 -0.396875,-0.26458 z m 10.847919,-0.26458 c 0,-0.14552 0.11906,-0.26459 0.26458,-0.26459 0.14552,0 0.26458,0.11907 0.26458,0.26459 0,0.14552 -0.11906,0.26458 -0.26458,0.26458 -0.14552,0 -0.26458,-0.11906 -0.26458,-0.26458 z m -1.05834,-0.66146 c 0,-0.21828 0.11907,-0.39688 0.26459,-0.39688 0.14552,0 0.26458,0.1786 0.26458,0.39688 0,0.21828 -0.11906,0.39687 -0.26458,0.39687 -0.14552,0 -0.26459,-0.17859 -0.26459,-0.39687 z m 2.38125,-0.13229 c 0,-0.14552 0.11907,-0.26459 0.26459,-0.26459 0.14552,0 0.26458,0.11907 0.26458,0.26459 0,0.14552 -0.11906,0.26458 -0.26458,0.26458 -0.14552,0 -0.26459,-0.11906 -0.26459,-0.26458 z m -0.93425,-0.27787 c -0.25141,-0.4068 0.093,-0.66926 0.43255,-0.32967 0.19002,0.19002 0.19458,0.33801 0.0139,0.4497 -0.14815,0.0916 -0.34904,0.0375 -0.44643,-0.12003 z m -1.1317,-0.53573 c 0.0521,-0.15643 0.20792,-0.28442 0.34616,-0.28442 0.13825,0 0.29402,0.12799 0.34616,0.28442 0.0521,0.15644 -0.10362,0.28443 -0.34616,0.28443 -0.24253,0 -0.39831,-0.12799 -0.34616,-0.28443 z m 2.22019,0.0554 c -0.11397,-0.18442 -0.13577,-0.40676 -0.0484,-0.49409 0.23679,-0.23679 0.49498,0.11147 0.36708,0.49515 -0.0896,0.26887 -0.15194,0.26866 -0.31864,-0.001 z m -0.94799,-0.96156 c 0,-0.21828 0.11907,-0.39687 0.26459,-0.39687 0.14552,0 0.26458,0.17859 0.26458,0.39687 0,0.21829 -0.11906,0.39688 -0.26458,0.39688 -0.14552,0 -0.26459,-0.17859 -0.26459,-0.39688 z m -1.05833,-0.26458 c 0,-0.21828 0.11906,-0.39687 0.26458,-0.39687 0.14553,0 0.26459,0.17859 0.26459,0.39687 0,0.21828 -0.11906,0.39688 -0.26459,0.39688 -0.14552,0 -0.26458,-0.1786 -0.26458,-0.39688 z m 2.38125,0.13229 c 0,-0.14552 0.11906,-0.26458 0.26458,-0.26458 0.14553,0 0.26606,-0.14883 0.26786,-0.33073 0.005,-0.45618 1.78292,-1.57744 1.984534,-1.25122 0.0881,0.14247 -0.0255,0.25903 -0.252394,0.25903 -0.22687,0 -0.4125,0.11907 -0.4125,0.26459 0,0.14552 -0.15847,0.26458 -0.35216,0.26458 -0.19369,0 -0.51147,0.29766 -0.70617,0.66146 -0.35715,0.66734 -0.79375,0.88564 -0.79375,0.39687 z m -2.38125,-1.19062 c 0,-0.21828 0.11906,-0.39688 0.26458,-0.39688 0.14553,0 0.26459,0.1786 0.26459,0.39688 0,0.21828 -0.11906,0.39687 -0.26459,0.39687 -0.14552,0 -0.26458,-0.17859 -0.26458,-0.39687 z m 1.50482,0.226 c -0.37452,-0.37453 -0.1626,-0.88746 0.36666,-0.88746 0.36988,0 0.52071,0.14368 0.46302,0.44109 -0.0944,0.48696 -0.5461,0.72995 -0.82968,0.44637 z m 7.821744,-0.7355 c -0.67984,-0.31684 -0.78597,-0.68113 -0.19843,-0.68113 0.21828,0 0.39687,0.11033 0.39687,0.24519 0,0.13485 0.20836,0.28647 0.46302,0.33693 0.25466,0.0505 0.34396,0.15581 0.19844,0.2341 -0.14552,0.0783 -0.53247,0.0175 -0.8599,-0.13509 z m -6.307864,-0.516 c -0.22416,-0.58415 0.0741,-0.88237 0.47821,-0.47822 0.23863,0.23863 0.23965,0.38654 0.004,0.62192 -0.23538,0.23538 -0.35012,0.2012 -0.48248,-0.1437 z m 2.272974,0.0995 c 0,-0.14552 0.11906,-0.26459 0.26458,-0.26459 0.14552,0 0.26458,0.11907 0.26458,0.26459 0,0.14552 -0.11906,0.26458 -0.26458,0.26458 -0.14552,0 -0.26458,-0.11906 -0.26458,-0.26458 z m 0.79375,-0.26459 c 0,-0.14552 0.11906,-0.26458 0.26458,-0.26458 0.14552,0 0.26458,0.11906 0.26458,0.26458 0,0.14552 -0.11906,0.26459 -0.26458,0.26459 -0.14552,0 -0.26458,-0.11907 -0.26458,-0.26459 z m 1.05833,0 c 0,-0.14552 0.12609,-0.26458 0.2802,-0.26458 0.15411,0 0.20661,0.11906 0.11668,0.26458 -0.0899,0.14552 -0.21603,0.26459 -0.2802,0.26459 -0.0642,0 -0.11668,-0.11907 -0.11668,-0.26459 z m 0.79375,0 c 0,-0.14552 0.11906,-0.26458 0.26458,-0.26458 0.14553,0 0.26459,0.11906 0.26459,0.26458 0,0.14552 -0.11906,0.26459 -0.26459,0.26459 -0.14552,0 -0.26458,-0.11907 -0.26458,-0.26459 z m -3.664484,-0.51593 c 0.1137,-0.34109 0.476604,-0.40236 0.509324,-0.086 0.0109,0.1055 -0.123034,0.23944 -0.297654,0.29765 -0.17463,0.0582 -0.26988,-0.037 -0.21167,-0.21166 z m 5.261824,-0.25944 c -0.20733,-0.38739 -0.17019,-0.61397 0.15369,-0.93786 0.23488,-0.23488 0.55356,-0.38489 0.70818,-0.33335 0.46626,0.15542 0.81069,0.88848 0.63391,1.34916 -0.22789,0.59387 -1.1623,0.54517 -1.49578,-0.0779 z m -3.8022,-0.19477 c -0.30444,-0.30443 -0.19268,-0.61736 0.22049,-0.61736 0.21828,0 0.39687,0.1786 0.39687,0.39688 0,0.41316 -0.31292,0.52492 -0.61736,0.22048 z m 1.58994,-0.4592 c -0.17841,-0.46493 0.0348,-0.68732 0.65902,-0.68732 0.30868,0 0.48507,0.19242 0.48507,0.52916 0,0.61634 -0.91949,0.74345 -1.14409,0.15816 z m 4.41545,-0.0241 c -0.0916,-0.23881 -0.0398,-0.56108 0.1153,-0.71614 0.40313,-0.40312 1.16693,-0.0347 1.06162,0.5121 -0.11729,0.60904 -0.96511,0.75603 -1.17692,0.20404 z m -1.0224,-1.98614 c -0.0899,-0.14552 0.0221,-0.26458 0.24896,-0.26458 0.22687,0 0.41249,0.11906 0.41249,0.26458 0,0.14552 -0.11203,0.26458 -0.24896,0.26458 -0.13694,0 -0.32256,-0.11906 -0.41249,-0.26458 z m 0.92604,0 c 0,-0.14552 0.11906,-0.26458 0.26458,-0.26458 0.14552,0 0.26458,0.11906 0.26458,0.26458 0,0.14552 -0.11906,0.26458 -0.26458,0.26458 -0.14552,0 -0.26458,-0.11906 -0.26458,-0.26458 z m 1.05833,0 c 0,-0.14552 0.11906,-0.26458 0.26458,-0.26458 0.14553,0 0.26459,0.11906 0.26459,0.26458 0,0.14552 -0.11906,0.26458 -0.26459,0.26458 -0.14552,0 -0.26458,-0.11906 -0.26458,-0.26458 z m -2.76682,-0.2463 c -0.0837,-0.13547 -0.0312,-0.32109 0.11667,-0.41249 0.1479,-0.0914 0.2689,0.0194 0.2689,0.2463 0,0.46475 -0.15876,0.53318 -0.38557,0.16619 z m 3.56057,-0.0183 c 0,-0.14552 0.11906,-0.26459 0.26458,-0.26459 0.14553,0 0.26459,0.11907 0.26459,0.26459 0,0.14552 -0.11906,0.26458 -0.26459,0.26458 -0.14552,0 -0.26458,-0.11906 -0.26458,-0.26458 z m 0.79375,-0.26459 c 0,-0.14552 0.1786,-0.26458 0.39688,-0.26458 0.21828,0 0.39687,-0.11906 0.39687,-0.26458 0,-0.14552 0.1786,-0.26459 0.39688,-0.26459 0.21828,0 0.39687,-0.11906 0.39687,-0.26458 0,-0.14552 0.11906,-0.26458 0.26458,-0.26458 0.51563,0 0.24605,0.40464 -0.66102,0.99218 -1.02891,0.66648 -1.19106,0.7115 -1.19106,0.33073 z m 2.24896,-1.85208 c 0.0899,-0.14552 0.21603,-0.26458 0.2802,-0.26458 0.0642,0 0.11667,0.11906 0.11667,0.26458 0,0.14552 -0.12609,0.26458 -0.28019,0.26458 -0.15411,0 -0.20662,-0.11906 -0.11668,-0.26458 z m 0.39687,-0.79375 c 0,-0.14552 0.11907,-0.26458 0.26459,-0.26458 0.14552,0 0.26458,0.11906 0.26458,0.26458 0,0.14552 -0.11906,0.26458 -0.26458,0.26458 -0.14552,0 -0.26459,-0.11906 -0.26459,-0.26458 z m 0.26459,-0.79375 c 0,-0.14552 0.11906,-0.26458 0.26458,-0.26458 0.14552,0 0.26458,0.11906 0.26458,0.26458 0,0.14552 -0.11906,0.26458 -0.26458,0.26458 -0.14552,0 -0.26458,-0.11906 -0.26458,-0.26458 z m 1.45521,-0.52917 c -0.19294,-0.31217 0.0573,-0.79375 0.41249,-0.79375 0.13693,0 0.24896,0.23813 0.24896,0.52917 0,0.55803 -0.38493,0.712 -0.66145,0.26458 z m -1.45521,-0.52916 c 0,-0.14552 0.11906,-0.26459 0.26458,-0.26459 0.14552,0 0.26458,0.11907 0.26458,0.26459 0,0.14552 -0.11906,0.26458 -0.26458,0.26458 -0.14552,0 -0.26458,-0.11906 -0.26458,-0.26458 z m -0.26459,-0.79375 c 0,-0.14552 0.11907,-0.26459 0.26459,-0.26459 0.14552,0 0.26458,0.11907 0.26458,0.26459 0,0.14552 -0.11906,0.26458 -0.26458,0.26458 -0.14552,0 -0.26459,-0.11906 -0.26459,-0.26458 z m 3.42307,-0.29545 c -0.23685,-0.44256 -0.21535,-0.64441 0.10247,-0.96223 0.75754,-0.75754 1.91847,0.30422 1.23417,1.12875 -0.46006,0.55434 -0.98591,0.48882 -1.33664,-0.16652 z m -2.27588,-0.11921 c -0.0875,-0.22807 -0.0322,-0.54153 0.12281,-0.69659 0.41155,-0.41155 1.11125,-0.0503 1.11125,0.57378 0,0.65252 -0.99287,0.75132 -1.23406,0.12281 z m 4.71994,-0.98477 c -0.22823,-0.275 -0.21549,-0.48197 0.0522,-0.84808 0.47854,-0.65445 1.29042,-0.33869 1.17682,0.45768 -0.0989,0.69344 -0.79424,0.9143 -1.22904,0.3904 z m 2.24676,-0.89363 c -0.2724,-0.27241 -0.20854,-1.09542 0.0998,-1.28598 0.49972,-0.30884 1.06678,0.40137 0.76729,0.96099 -0.27855,0.52048 -0.56444,0.62763 -0.86708,0.32499 z m 1.94028,-1.41111 c 0,-0.3985 0.13815,-0.54136 0.46302,-0.4788 0.25466,0.049 0.46302,0.2645 0.46302,0.4788 0,0.21429 -0.20836,0.42975 -0.46302,0.4788 -0.32487,0.0626 -0.46302,-0.0803 -0.46302,-0.4788 z m 1.71979,-0.79375 c 0.0899,-0.14552 0.27556,-0.26458 0.41249,-0.26458 0.13694,0 0.24897,0.11906 0.24897,0.26458 0,0.14552 -0.18562,0.26458 -0.41249,0.26458 -0.22687,0 -0.3389,-0.11906 -0.24897,-0.26458 z m -60.098757,34.59427 c 0.604295,-0.97035 0.727943,-2.26474 0.311544,-3.26132 -0.878586,-2.10275 -2.093646,-1.23596 -1.936666,1.38156 0.134745,2.24676 0.868221,3.09516 1.625122,1.87976 z m 14.768577,-4.37053 c 0.102136,-0.59829 0.381587,-1.38676 0.621002,-1.75215 0.604776,-0.92301 2.510484,-1.78178 4.079819,-1.8385 1.288531,-0.0466 2.16619,-0.49383 1.762066,-0.89795 -0.111566,-0.11157 -0.996598,-0.19878 -1.966736,-0.19381 -3.232157,0.0166 -5.094799,1.37843 -5.490026,4.01399 -0.313425,2.09007 0.641541,2.73232 0.993875,0.66842 z m -9.857479,-2.70076 c 1.527799,-0.43816 2.652469,-1.78028 3.053897,-3.64434 0.278513,-1.29329 -0.476491,-1.11992 -1.152254,0.26459 -0.916418,1.87757 -2.986026,2.83164 -5.085395,2.3443 -0.934149,-0.21684 -1.8213,0.0203 -1.8213,0.48683 0,0.61083 3.464155,0.99055 5.005052,0.54862 z m 23.305366,-9.25132 c 1.180039,-0.82427 2.475229,-3.70681 1.522929,-3.38937 -0.18104,0.0603 -0.54902,0.52722 -0.81774,1.0375 -0.68564,1.302 -1.850933,1.92261 -3.566023,1.89919 -0.773094,-0.0105 -1.527276,-0.14084 -1.675958,-0.28952 -0.148683,-0.14869 -0.498417,-0.21069 -0.777187,-0.13779 -1.724204,0.45089 1.410499,1.73253 3.594187,1.4695 0.582084,-0.0701 1.35599,-0.3354 1.719792,-0.58951 z m 7.892759,-0.39587 c 0.755004,-1.27964 1.943764,-1.83569 3.524254,-1.64851 1.28761,0.1525 1.96027,-0.19299 1.25074,-0.64239 -0.59994,-0.38 -3.13146,-0.26924 -4.07451,0.17826 -0.50122,0.23785 -1.058914,0.79554 -1.296754,1.29676 -0.81931,1.72657 -0.33337,2.39149 0.59627,0.81588 z m 9.713344,-9.78908 c 1.12196,-0.73513 1.95381,-3.32421 1.06805,-3.32421 -0.20672,0 -0.45048,0.32742 -0.54168,0.7276 -0.29151,1.27903 -1.59508,2.4474 -2.73061,2.4474 -0.34099,0 -0.88004,0.14153 -1.1979,0.31451 l -0.57792,0.31452 0.66146,0.16377 c 0.88915,0.22014 2.46757,-0.086 3.3186,-0.64359 z m -12.482664,31.47027 c -0.0916,-0.23882 -0.0398,-0.56109 0.11531,-0.71615 0.40312,-0.40312 1.16692,-0.0347 1.06162,0.5121 -0.11729,0.60904 -0.96511,0.75603 -1.17693,0.20405 z m 30.396574,-0.7286 c -1.26609,-0.40614 -2.79234,-1.8123 -2.5745,-2.37195 0.30933,-0.79476 1.09307,-0.80652 2.26054,-0.0339 0.83759,0.5543 1.49464,0.7514 2.72635,0.81786 1.95668,0.10557 2.91096,-0.30921 3.02817,-1.31623 0.17901,-1.53785 -1.13393,-2.51977 -4.37398,-3.27118 -2.00038,-0.46392 -2.45534,-0.73683 -2.45534,-1.47283 0,-0.74018 0.64667,-0.87162 2.55674,-0.51967 4.7414,0.87364 7.43874,3.72564 6.01557,6.36049 -0.86062,1.59335 -1.98098,2.14167 -4.31197,2.11037 -1.10626,-0.0149 -2.39848,-0.15118 -2.87158,-0.30294 z m -56.818972,-0.19921 c 0.08994,-0.14553 0.401646,-0.26459 0.692688,-0.26459 0.291042,0 0.455582,0.11906 0.365645,0.26459 -0.08994,0.14552 -0.401646,0.26458 -0.692688,0.26458 -0.291042,0 -0.455582,-0.11906 -0.365645,-0.26458 z m 51.027982,-0.1323 c -0.24993,-0.65129 0.10962,-1.19062 0.79375,-1.19062 0.35279,0 0.70998,0.17859 0.79375,0.39687 0.24992,0.6513 -0.10963,1.19063 -0.79375,1.19063 -0.3528,0 -0.70999,-0.1786 -0.79375,-0.39688 z m -2.21579,-0.5333 c -0.38861,-0.46826 -0.11885,-0.9219 0.54822,-0.9219 0.32749,0 0.51355,0.18146 0.51355,0.50085 0,0.6403 -0.66195,0.9028 -1.06177,0.42105 z m -17.98823,-0.64171 c 0,-0.71244 0.50052,-0.9514 0.98274,-0.46918 0.48222,0.48221 0.24325,0.98274 -0.46919,0.98274 -0.33195,0 -0.51355,-0.1816 -0.51355,-0.51356 z m 21.23281,-0.45542 c -0.51568,-0.20808 -0.38867,-1.09806 0.2018,-1.41407 0.4421,-0.23661 0.48265,-0.37823 0.23876,-0.83393 -0.35666,-0.66643 0.25807,-1.45021 0.93399,-1.19083 0.71558,0.27459 0.81156,0.99558 0.19504,1.4651 -0.39655,0.30199 -0.49266,0.54254 -0.32434,0.81178 0.48634,0.77798 -0.32368,1.53381 -1.24525,1.16195 z m -16.63435,-1.26731 c -0.18431,-0.48032 0.0834,-0.93871 0.54822,-0.93871 0.40472,0 0.65023,0.50658 0.48084,0.99218 -0.15809,0.45323 -0.84839,0.41736 -1.02906,-0.0535 z m 14.24617,0.073 c -0.22726,-0.22726 -0.23279,-0.40569 -0.0205,-0.66146 0.58219,-0.7015 1.44328,-0.27886 1.12448,0.55191 -0.19078,0.49716 -0.6689,0.54461 -1.10396,0.10955 z m -16.10483,-1.14847 c -0.21043,-0.54837 0.1043,-1.2521 0.50149,-1.12129 0.18182,0.0599 0.36665,0.35228 0.41072,0.64978 0.0957,0.64591 -0.68954,1.05179 -0.91221,0.47151 z m 5.29406,-0.25835 c -0.0916,-0.23882 -0.0397,-0.56108 0.11531,-0.71614 0.40312,-0.40313 1.16692,-0.0347 1.06162,0.51209 -0.11729,0.60904 -0.96511,0.75603 -1.17693,0.20405 z m 11.37708,-1.05833 c -0.0916,-0.23882 -0.0397,-0.56109 0.11531,-0.71615 0.40312,-0.40312 1.16692,-0.0347 1.06162,0.5121 -0.11729,0.60904 -0.96511,0.75603 -1.17693,0.20405 z m 2.82627,-0.51622 c -0.71455,-0.86099 0.46798,-1.89688 1.26059,-1.10427 0.33696,0.33696 0.37147,0.5437 0.14957,0.89608 -0.38634,0.61348 -0.99876,0.70389 -1.41016,0.20819 z m -15.01987,-0.973 c -0.41109,-0.41109 -0.12107,-1.02609 0.48389,-1.02609 0.35786,0 0.50085,0.18884 0.50085,0.66145 0,0.69365 -0.47853,0.87085 -0.98474,0.36464 z m 4.22589,-0.15254 c -0.40783,-0.15278 -0.436,-1.04185 -0.0408,-1.28612 0.15949,-0.0986 0.45831,-0.0109 0.66405,0.19486 0.3033,0.3033 0.31102,0.45363 0.0408,0.79462 -0.18333,0.2313 -0.48215,0.36479 -0.66405,0.29664 z m 8.49688,-0.73949 c -0.0916,-0.23882 -0.0398,-0.56109 0.11531,-0.71615 0.40312,-0.40312 1.16692,-0.0347 1.06162,0.5121 -0.11729,0.60904 -0.96511,0.75603 -1.17693,0.20405 z m 2.5879,-0.22005 c -0.49414,-0.59541 -0.0777,-1.27795 0.72298,-1.1851 0.54221,0.0629 0.6938,0.22498 0.6938,0.74192 0,0.77023 -0.90929,1.05466 -1.41678,0.44318 z m 3.80826,-1.66137 c -0.22391,-0.22391 -0.40711,-0.49921 -0.40711,-0.61179 0,-0.48718 1.02035,-1.02318 2.18267,-1.14658 1.48047,-0.15717 2.05066,-0.55472 2.05066,-1.42977 0,-0.83259 -0.5295,-1.0077 -2.10509,-0.69617 -1.42983,0.28271 -2.12824,0.0533 -2.12824,-0.69909 0,-0.7574 0.55029,-1.03831 2.39273,-1.22143 2.20492,-0.21914 3.06705,0.11294 3.59912,1.38635 0.84529,2.02307 -0.0942,3.80911 -2.24907,4.27584 -2.51102,0.54386 -2.91709,0.56122 -3.33567,0.14264 z M 115.03377,138.86 c -0.38766,-0.38765 -0.16449,-1.14652 0.33716,-1.14652 0.67537,0 0.93533,0.45546 0.53516,0.93763 -0.34929,0.42087 -0.60025,0.48097 -0.87232,0.20889 z m 6.81082,-0.18826 c -0.21415,-0.55805 0.0864,-0.95826 0.71972,-0.95826 0.39972,0 0.51094,0.14732 0.44741,0.5926 -0.0987,0.69162 -0.94081,0.95545 -1.16713,0.36566 z m 2.36889,-0.0322 c -0.24993,-0.6513 0.10962,-1.19063 0.79375,-1.19063 0.35279,0 0.70998,0.1786 0.79375,0.39688 0.24992,0.65129 -0.10963,1.19062 -0.79375,1.19062 -0.3528,0 -0.70999,-0.17859 -0.79375,-0.39687 z m -6.34933,-1.05657 c -0.0916,-0.23881 -0.0397,-0.56108 0.11531,-0.71614 0.40312,-0.40312 1.16692,-0.0347 1.06162,0.5121 -0.11729,0.60904 -0.96511,0.75603 -1.17693,0.20404 z m 6.65761,-0.82623 c -0.48334,-0.48334 -0.4304,-0.86983 0.17113,-1.24926 0.92509,-0.58353 1.74325,0.57559 0.95949,1.35935 -0.4203,0.4203 -0.61965,0.40089 -1.13062,-0.11009 z m -2.66862,-0.65613 c -0.0986,-0.15949 0.002,-0.47123 0.22358,-0.69277 0.48222,-0.48222 0.98274,-0.24325 0.98274,0.46919 0,0.56198 -0.89469,0.7278 -1.20632,0.22358 z m 2.66911,-1.39156 c -0.30392,-0.22224 -0.42606,-0.52638 -0.32115,-0.79975 0.24732,-0.64453 0.95583,-0.82631 1.41825,-0.36389 0.31782,0.31781 0.33931,0.51967 0.10247,0.96222 -0.35082,0.6555 -0.53604,0.6866 -1.19957,0.20142 z m -62.475789,-0.63766 c -0.418754,-0.27961 -0.900908,-1.27013 -0.89109,-1.83063 0.02384,-1.36103 1.913897,-2.12998 2.874441,-1.16944 0.768489,0.76849 0.751956,2.24206 -0.03131,2.79069 -0.62577,0.4383 -1.473085,0.52919 -1.952041,0.20938 z m 59.737829,-0.6547 c 0.10126,-0.70973 0.87556,-0.93464 1.11045,-0.32254 0.22337,0.58209 -0.0179,0.91515 -0.66305,0.91515 -0.39971,0 -0.51093,-0.14732 -0.4474,-0.59261 z m -2.33264,-0.33166 c -0.0916,-0.23882 -0.0397,-0.56109 0.11531,-0.71615 0.40312,-0.40312 1.16692,-0.0347 1.06162,0.5121 -0.11729,0.60904 -0.96511,0.75603 -1.17693,0.20405 z m 4.67836,-0.51622 c -0.71456,-0.86099 0.46797,-1.89688 1.26059,-1.10427 0.33696,0.33696 0.37146,0.5437 0.14956,0.89608 -0.38633,0.61348 -0.99875,0.70389 -1.41015,0.20819 z m -2.82627,-1.33587 c -0.0916,-0.23881 -0.0398,-0.56108 0.1153,-0.71614 0.40313,-0.40312 1.16693,-0.0347 1.06162,0.5121 -0.11729,0.60904 -0.96511,0.75603 -1.17692,0.20404 z m 7.32405,0.0128 c -0.75255,-0.90676 0.28536,-2.43963 1.24468,-1.83827 0.94413,0.59184 0.60451,2.22059 -0.46302,2.22059 -0.2554,0 -0.60715,-0.17204 -0.78166,-0.38232 z m -59.014167,-0.8083 c 0,-0.2586 0.253494,-0.39394 0.727604,-0.38846 0.696929,0.008 0.705952,0.0248 0.214014,0.39688 -0.65442,0.49498 -0.941618,0.49241 -0.941618,-0.008 z m 54.162557,0.23165 c -0.59543,-0.59542 0.0808,-1.70551 0.90733,-1.48938 0.72525,0.18966 0.57903,1.49101 -0.17973,1.59962 -0.29703,0.0425 -0.62445,-0.007 -0.7276,-0.11024 z m -53.627456,-1.28283 c -0.504495,-0.60788 -0.218428,-1.33007 0.526856,-1.33007 0.474656,0 0.680724,0.16079 0.740036,0.57741 0.108105,0.75936 -0.809097,1.30427 -1.266892,0.75266 z m -8.284066,-0.0391 c -0.369686,-0.36969 -0.180234,-1.40908 0.304082,-1.66828 0.696057,-0.37252 1.436254,0.21899 1.318448,1.0536 -0.06561,0.4648 -0.280055,0.66865 -0.762634,0.72492 -0.369248,0.0431 -0.756201,-0.007 -0.859896,-0.11024 z m 10.923965,-0.10864 c 0,-0.14096 0.178594,-0.25628 0.396875,-0.25628 0.218281,0 0.396875,0.0468 0.396875,0.10398 0,0.0572 -0.178594,0.17252 -0.396875,0.25628 -0.218281,0.0838 -0.396875,0.037 -0.396875,-0.10398 z m 48.688647,-0.39497 c 0.18408,-0.2218 0.38917,-0.34878 0.45577,-0.28219 0.18348,0.18349 -0.18933,0.68546 -0.50909,0.68546 -0.17544,0 -0.15537,-0.15181 0.0533,-0.40327 z m 1.99473,-0.21401 c -0.67719,-0.49518 -0.43175,-1.3671 0.38484,-1.3671 0.46543,0 0.68091,0.16154 0.73674,0.55232 0.11353,0.79456 -0.51991,1.25472 -1.12158,0.81478 z m 3.41189,-0.56132 c -1.19645,-1.19645 -0.48979,-3.05473 1.16164,-3.05473 0.99635,0 1.62851,0.74688 1.62851,1.92406 0,1.67288 -1.59969,2.32114 -2.79015,1.13067 z m -53.480667,-0.56789 c -0.167451,-0.43638 0.37153,-0.95456 0.840608,-0.80817 0.145521,0.0454 0.30263,0.34113 0.349132,0.65715 0.06389,0.43423 -0.05124,0.57459 -0.471325,0.57459 -0.30573,0 -0.629017,-0.19061 -0.718415,-0.42357 z m -9.506388,-0.89089 c -2.158716,-1.19729 -3.38543,-2.46175 -3.830976,-3.94885 -0.378197,-1.26231 -0.191774,-2.11404 0.692804,-3.1653 1.813096,-2.15474 5.598533,-1.61133 8.656522,1.24267 1.273587,1.18863 1.514117,1.79568 0.939271,2.37053 -0.514427,0.51442 -0.941606,0.37352 -1.831131,-0.60401 -1.748836,-1.92184 -5.126642,-2.89462 -6.144737,-1.76964 -1.146135,1.26646 -0.04071,2.87881 3.036001,4.42821 1.831132,0.92214 2.208656,1.4704 1.500284,2.17877 -0.503501,0.5035 -1.012389,0.38001 -3.018038,-0.73238 z m 6.812371,0.69789 c -0.679112,-0.81828 0.508792,-1.86119 1.262011,-1.10798 0.314185,0.31419 0.343311,0.51994 0.123104,0.86962 -0.378085,0.60038 -0.996361,0.70678 -1.385115,0.23836 z m 11.865567,-1.37194 c -0.388617,-0.46825 -0.118852,-0.9219 0.548215,-0.9219 0.327488,0 0.513552,0.18146 0.513552,0.50085 0,0.6403 -0.661952,0.9028 -1.061767,0.42105 z m -3.868957,-0.2587 c -0.09164,-0.23881 -0.03975,-0.56108 0.115307,-0.71614 0.403122,-0.40312 1.166921,-0.0347 1.06162,0.5121 -0.11729,0.60904 -0.965112,0.75603 -1.176927,0.20404 z m -7.05256,-0.0347 c -0.604637,-0.60464 0.186559,-1.83128 0.983853,-1.52533 0.648071,0.24869 0.446546,1.53497 -0.256249,1.63557 -0.29703,0.0425 -0.624452,-0.007 -0.727604,-0.11024 z m 3.08381,-0.22988 c -0.09164,-0.23882 -0.03975,-0.56108 0.115307,-0.71614 0.403122,-0.40313 1.166921,-0.0347 1.06162,0.51209 -0.11729,0.60904 -0.965112,0.75603 -1.176927,0.20405 z m 9.836815,-0.38036 c -0.08372,-0.13547 -0.03122,-0.32109 0.116676,-0.41249 0.147895,-0.0914 0.2689,0.0194 0.2689,0.2463 0,0.46475 -0.158765,0.53318 -0.385576,0.16619 z m -11.94704,-1.45494 c -0.261957,-0.68264 0.100556,-1.20918 0.832511,-1.20918 0.593728,0 0.675934,0.0991 0.603616,0.72761 -0.09653,0.83891 -1.161913,1.19616 -1.436127,0.48157 z m 3.610984,-0.007 c -0.396649,-0.47794 -0.141927,-0.93763 0.519548,-0.93763 0.273865,0 0.574745,0.12427 0.668622,0.27617 0.175439,0.28387 -0.311857,1.04674 -0.668622,1.04674 -0.109884,0 -0.343681,-0.17338 -0.519548,-0.38528 z m 10.044548,-0.65744 c 0,-0.71244 0.500523,-0.9514 0.98274,-0.46918 0.482216,0.48221 0.243252,0.98274 -0.469189,0.98274 -0.331956,0 -0.513551,-0.1816 -0.513551,-0.51356 z m 2.910417,0.24897 c 0,-0.14552 0.119063,-0.26458 0.264583,-0.26458 0.145521,0 0.264584,0.11906 0.264584,0.26458 0,0.14552 -0.119063,0.26459 -0.264584,0.26459 -0.14552,0 -0.264583,-0.11907 -0.264583,-0.26459 z m 1.5875,-0.66146 c 0,-0.4726 0.143,-0.66145 0.500859,-0.66145 0.533845,0 0.818272,0.44884 0.628743,0.99218 -0.06345,0.1819 -0.34357,0.33073 -0.622483,0.33073 -0.364538,0 -0.507119,-0.18597 -0.507119,-0.66146 z m -16.830532,-0.51061 c -0.261957,-0.68264 0.100555,-1.20918 0.832511,-1.20918 0.593728,0 0.675934,0.0991 0.603616,0.72761 -0.09653,0.83891 -1.161913,1.19617 -1.436127,0.48157 z m 9.686782,0.11374 c 0,-0.14552 0.119062,-0.26458 0.264583,-0.26458 0.145521,0 0.264584,0.11906 0.264584,0.26458 0,0.14552 -0.119063,0.26458 -0.264584,0.26458 -0.145521,0 -0.264583,-0.11906 -0.264583,-0.26458 z m 10.726926,0.0183 c -0.0837,-0.13546 -0.0312,-0.32108 0.11668,-0.41249 0.14789,-0.0914 0.26889,0.0194 0.26889,0.2463 0,0.46475 -0.15876,0.53318 -0.38557,0.16619 z m -16.4514,-0.41339 c -0.09164,-0.23881 -0.03975,-0.56108 0.115307,-0.71614 0.403122,-0.40312 1.166921,-0.0347 1.06162,0.5121 -0.11729,0.60904 -0.965112,0.75603 -1.176927,0.20404 z m 18.15618,-0.79998 c -0.29061,-0.35017 -0.27572,-0.49095 0.0907,-0.85737 0.5152,-0.51521 1.07697,-0.14471 0.93001,0.61337 -0.12371,0.63817 -0.59924,0.75184 -1.02071,0.244 z m -7.007748,-0.12783 c -0.08994,-0.14552 -0.03743,-0.26458 0.116676,-0.26458 0.15411,0 0.280199,0.11906 0.280199,0.26458 0,0.14552 -0.0525,0.26459 -0.116675,0.26459 -0.06417,0 -0.190262,-0.11907 -0.2802,-0.26459 z m -13.796237,-0.40022 c -0.195433,-0.50929 0.357351,-1.18726 0.968035,-1.18726 0.533013,0 0.846737,0.60173 0.620757,1.19063 -0.198264,0.51667 -1.390205,0.51414 -1.588792,-0.003 z m 17.364675,-7.7e-4 c -0.38861,-0.46825 -0.11885,-0.9219 0.54822,-0.9219 0.32749,0 0.51355,0.18146 0.51355,0.50086 0,0.64029 -0.66195,0.90279 -1.06177,0.42104 z m 23.069934,-0.17358 c 0.0977,-0.66392 0.45188,-0.84202 0.99358,-0.4996 0.31481,0.19899 0.32059,0.31153 0.0338,0.65715 -0.51465,0.62011 -1.12792,0.52606 -1.02733,-0.15755 z m -35.934721,-0.0851 c -0.09164,-0.23881 -0.03975,-0.56108 0.115308,-0.71614 0.403121,-0.40312 1.166921,-0.0347 1.06162,0.5121 -0.11729,0.60904 -0.965112,0.75603 -1.176928,0.20404 z m 8.370308,-0.66322 c 0,-0.14552 0.119062,-0.26459 0.264583,-0.26459 0.145521,0 0.264583,0.11907 0.264583,0.26459 0,0.14552 -0.119062,0.26458 -0.264583,0.26458 -0.145521,0 -0.264583,-0.11906 -0.264583,-0.26458 z M 69.717648,118.0228 c -4.805991,-3.67106 -7.194802,-8.33598 -5.259642,-10.27114 0.865182,-0.86518 1.902335,-1.05347 3.508271,-0.63689 1.771705,0.45957 3.603161,1.57537 5.41318,3.29795 3.072537,2.92409 4.04705,5.60491 2.037455,5.60491 -0.131366,0 -0.726584,-0.77227 -1.322706,-1.71617 -1.296029,-2.05211 -3.000091,-3.6153 -5.098256,-4.67679 -1.728928,-0.87468 -3.153712,-0.93906 -3.303361,-0.14926 -0.248265,1.31025 2.560852,4.95979 5.655145,7.34702 1.199596,0.92548 1.453274,1.2576 1.38821,1.81746 -0.130531,1.12317 -0.962783,0.95301 -3.018296,-0.61709 z m 7.135405,1.03754 c -0.250682,-0.65327 0.110381,-1.19062 0.800009,-1.19062 0.737959,0 0.995125,0.44712 0.64675,1.12448 -0.291478,0.56672 -1.23806,0.61 -1.446759,0.0661 z m 41.227067,-0.19844 c 0.061,-0.42981 0.26231,-0.59531 0.72396,-0.59531 0.88461,0 0.97012,0.5062 0.14874,0.88045 -0.9183,0.41841 -0.97021,0.40145 -0.8727,-0.28514 z m -35.964934,0.14467 c -0.407823,-0.1512 -0.436033,-1.04054 -0.04076,-1.28484 0.159485,-0.0986 0.482655,0.0135 0.718154,0.24897 0.375416,0.37542 0.380438,0.47318 0.04076,0.79333 -0.213084,0.20084 -0.536254,0.30998 -0.718154,0.24254 z m 16.95262,-0.5021 c -0.18523,-0.48271 0.35245,-0.91776 0.88276,-0.71426 0.195104,0.0749 0.354724,0.36151 0.354724,0.63698 0,0.62513 -1.003214,0.68778 -1.237484,0.0773 z m -4.05418,-0.10559 c 0,-0.14552 0.11906,-0.26458 0.26458,-0.26458 0.14552,0 0.26458,0.11906 0.26458,0.26458 0,0.14552 -0.11906,0.26459 -0.26458,0.26459 -0.14552,0 -0.26458,-0.11907 -0.26458,-0.26459 z m -16.537925,-0.53153 c -0.320677,-0.51887 0.155722,-1.32055 0.784736,-1.32055 0.661162,0 1.014309,0.54775 0.767616,1.19062 -0.171221,0.4462 -1.298571,0.54055 -1.552352,0.12993 z m 24.062859,-0.023 c -0.23326,-0.37742 0.53893,-1.1496 0.91635,-0.91635 0.15948,0.0986 0.28997,0.41031 0.28997,0.69277 0,0.56198 -0.89469,0.7278 -1.20632,0.22358 z m -18.620505,-0.35109 c -0.410723,-0.49489 -0.150104,-0.94644 0.546252,-0.94644 0.395537,0 0.510272,0.14735 0.447406,0.57459 -0.105652,0.71801 -0.564016,0.88954 -0.993658,0.37185 z m 10.037231,-0.41727 c 0,-0.14552 0.12609,-0.26459 0.2802,-0.26459 0.15411,0 0.20662,0.11907 0.11668,0.26459 -0.0899,0.14552 -0.21603,0.26458 -0.2802,0.26458 -0.0642,0 -0.11668,-0.11906 -0.11668,-0.26458 z m -13.4276,-0.17523 c -0.463523,-0.18704 -0.413657,-1.32384 0.06615,-1.50795 0.959738,-0.36829 1.602199,0.6366 0.873125,1.36568 -0.338396,0.33839 -0.421885,0.35104 -0.939271,0.14227 z m 5.490104,-0.86749 c 0,-0.71244 0.500523,-0.9514 0.982739,-0.46919 0.482217,0.48222 0.243253,0.98274 -0.469188,0.98274 -0.331957,0 -0.513551,-0.18159 -0.513551,-0.51355 z m -3.824001,-0.37066 c -0.554621,-0.40555 -0.414367,-1.1456 0.266641,-1.40693 0.631693,-0.2424 1.372867,0.59715 1.020431,1.15588 -0.385537,0.6112 -0.708406,0.67418 -1.287072,0.25105 z m 6.212564,-0.2976 c -0.262141,-0.31586 -0.26665,-0.49008 -0.02037,-0.78684 0.430062,-0.51819 1.118151,-0.20748 1.019228,0.46025 -0.102753,0.69359 -0.568023,0.84572 -0.998863,0.32659 z m -4.465117,-0.63616 c -0.458608,-0.29542 -0.303683,-1.08535 0.285652,-1.45648 0.354677,-0.22335 0.562665,-0.18385 0.921557,0.17504 0.772738,0.77274 -0.273256,1.88305 -1.207209,1.28144 z m 6.879168,-0.009 c -0.481023,-0.2974 -0.279078,-1.18771 0.294454,-1.29816 0.253432,-0.0488 0.536234,0.10789 0.628455,0.34821 0.2165,0.56419 -0.445217,1.24529 -0.922909,0.94995 z m 14.394436,-0.26558 c -0.25523,-0.41297 0.16299,-1.11221 0.61385,-1.02635 0.23635,0.045 0.46778,0.34851 0.51428,0.67445 0.0635,0.44529 -0.0477,0.59261 -0.44741,0.59261 -0.29257,0 -0.5989,-0.10832 -0.68072,-0.24071 z m -19.270027,-0.58863 c -0.55702,-0.31172 -0.58733,-0.84912 -0.07201,-1.27679 0.521089,-0.43247 1.467906,-0.0924 1.467906,0.52715 0,0.65829 -0.795626,1.08557 -1.395894,0.74964 z m 7.137683,0.13293 c -0.10205,-0.10205 -0.18554,-0.4121 -0.18554,-0.68901 0,-0.37078 0.1569,-0.48119 0.59531,-0.41892 0.38918,0.0553 0.59532,0.26652 0.59532,0.61009 0,0.52483 -0.65411,0.84882 -1.00509,0.49784 z m 9.700404,-0.22787 c -0.0916,-0.23881 -0.0397,-0.56108 0.11531,-0.71614 0.40312,-0.40312 1.16692,-0.0347 1.06162,0.5121 -0.11729,0.60904 -0.96511,0.75603 -1.17693,0.20404 z m -7.408334,-0.52916 c -0.0916,-0.23882 -0.0398,-0.56109 0.11531,-0.71615 0.40312,-0.40312 1.16692,-0.0347 1.06162,0.5121 -0.11729,0.60904 -0.96511,0.75603 -1.17693,0.20405 z m 2.54947,-0.002 c -0.44074,-0.53107 0.0867,-1.18761 0.80348,-1.00016 0.62196,0.16264 0.69112,1.00996 0.10093,1.23643 -0.55293,0.21218 -0.52649,0.21909 -0.90441,-0.23627 z m 2.466694,-0.0267 c -0.18524,-0.48271 0.35245,-0.91776 0.88276,-0.71426 0.1951,0.0749 0.35472,0.36151 0.35472,0.63698 0,0.62513 -1.00321,0.68778 -1.23748,0.0773 z m -12.634249,-0.25677 c -0.570087,-0.57009 -0.08196,-1.50133 0.726607,-1.38622 0.775996,0.11047 0.921795,1.1407 0.214966,1.51898 -0.404823,0.21666 -0.622904,0.18591 -0.941573,-0.13276 z m 20.274649,-0.16631 c -0.72215,-0.72215 0.14418,-1.93457 1.00305,-1.40376 0.42045,0.25986 0.31137,1.38301 -0.15157,1.56066 -0.53285,0.20447 -0.48045,0.21413 -0.85148,-0.1569 z m -18.306377,-0.60518 c -0.391255,-0.47143 -0.18362,-1.14121 0.426339,-1.37527 0.626526,-0.24042 1.221248,0.62774 0.874221,1.27616 -0.317714,0.59366 -0.856078,0.63468 -1.30056,0.0991 z m 16.033737,-0.28717 c -0.22975,-0.59871 0.32504,-1.21531 1.00594,-1.11803 0.39171,0.056 0.55232,0.27127 0.55232,0.74038 0,0.51693 -0.15159,0.67903 -0.6938,0.74191 -0.45849,0.0532 -0.75169,-0.0704 -0.86446,-0.36426 z m -14.033259,-0.26426 c -0.570087,-0.57009 -0.08196,-1.50133 0.726605,-1.38622 0.776,0.11047 0.9218,1.1407 0.21497,1.51898 -0.40483,0.21666 -0.622905,0.18591 -0.941575,-0.13276 z m 12.122449,-0.22713 c -0.26344,-0.6865 0.1058,-1.25391 0.75591,-1.16159 0.43729,0.0621 0.5965,0.26125 0.5965,0.74616 0,0.48491 -0.15921,0.68407 -0.5965,0.74616 -0.35779,0.0508 -0.66029,-0.0815 -0.75591,-0.33073 z M 93.702916,111.1376 c -0.71455,-0.86099 0.46798,-1.89688 1.26059,-1.10427 0.33696,0.33696 0.37147,0.54371 0.14957,0.89608 -0.38634,0.61348 -0.99876,0.70389 -1.41016,0.20819 z m 8.180894,-0.0255 c -0.25359,-0.30555 -0.27942,-0.55371 -0.0891,-0.8555 0.37897,-0.60078 0.70347,-0.6535 1.29937,-0.21107 0.41531,0.30836 0.46018,0.48016 0.22552,0.86347 -0.39331,0.64247 -0.99997,0.72829 -1.43583,0.2031 z m -2.095474,-0.23904 c -0.71456,-0.86099 0.467974,-1.89688 1.260594,-1.10426 0.33696,0.33696 0.37147,0.5437 0.14956,0.89607 -0.38633,0.61348 -0.99875,0.7039 -1.410154,0.20819 z m -22.07086,-0.75427 c -0.471491,-0.49992 -1.386217,-1.95217 -2.032724,-3.22721 -1.036842,-2.04487 -1.184906,-2.55612 -1.255503,-4.33517 -0.06637,-1.67258 0.01359,-2.16642 0.468379,-2.892715 0.75198,-1.20091 2.129122,-1.73478 4.030271,-1.56239 1.971679,0.17879 3.514128,1.05382 4.764318,2.702785 1.207226,1.59231 2.657215,4.93753 2.695066,6.21771 0.02508,0.84846 -0.03589,0.92604 -0.727913,0.92604 -0.68128,0 -0.814372,-0.15714 -1.358102,-1.6035 -1.709214,-4.54661 -3.307407,-6.2458 -5.87455,-6.2458 -1.571527,0 -2.201252,0.57608 -2.189874,2.00333 0.01251,1.56943 0.749751,3.47154 2.17856,5.62078 1.391782,2.09354 1.5067,2.58401 0.705858,3.01261 -0.468168,0.25055 -0.669443,0.16216 -1.403786,-0.61647 z m 17.921,0.47488 c -0.23497,-0.61231 0.0955,-1.19062 0.68045,-1.19062 0.57019,0 1.07811,0.72059 0.88586,1.25677 -0.16662,0.46467 -1.38232,0.41333 -1.56631,-0.0661 z m 2.12378,0.0186 c -0.26344,-0.6865 0.1058,-1.25391 0.75591,-1.16159 0.43729,0.0621 0.5965,0.26125 0.5965,0.74616 0,0.48491 -0.15921,0.68407 -0.5965,0.74616 -0.35779,0.0508 -0.66029,-0.0815 -0.75591,-0.33073 z m 14.088094,-0.69922 c -1.32655,-1.04346 -0.58094,-3.15579 1.11394,-3.15579 0.94441,0 1.62973,0.73432 1.62445,1.74062 -0.005,0.92091 -0.19926,1.25328 -0.97074,1.65935 -0.78597,0.4137 -0.96225,0.38935 -1.76765,-0.24418 z m -22.670839,-3.0395 c -0.227616,-0.27426 -0.349528,-1.31799 -0.363125,-3.10886 -0.02529,-3.33182 0.403688,-4.422075 1.989643,-5.056645 3.521947,-1.40921 6.248267,0.89466 6.383907,5.394685 0.0607,2.01407 -0.17096,2.48523 -1.15361,2.3462 -0.57889,-0.0819 -0.63679,-0.23738 -0.77202,-2.07292 -0.17153,-2.32834 -0.637,-3.43288 -1.65158,-3.91915 -0.9466,-0.4537 -2.214655,-0.1789 -2.617425,0.56721 -0.183708,0.34032 -0.29364,1.5894 -0.270158,3.06961 0.0389,2.45191 -0.163179,3.19274 -0.870895,3.19274 -0.182644,0 -0.486277,-0.18579 -0.674737,-0.41287 z m 15.129069,-0.0518 c -0.13677,-0.25555 -0.18697,-1.01202 -0.11156,-1.68105 0.16783,-1.48897 -0.23854,-2.35223 -1.1073,-2.35223 -0.82809,0 -1.02458,0.35894 -0.97106,1.7739 0.052,1.3736 -0.32091,2.19485 -0.99653,2.19485 -0.8932,0 -1.163064,-0.67923 -1.01293,-2.54955 0.16259,-2.02555 0.75217,-3.01308 2.01511,-3.37529 1.26408,-0.36253 2.85046,0.20335 3.48432,1.24289 0.60152,0.98653 0.73917,4.35445 0.2,4.89361 -0.46221,0.46221 -1.21337,0.38853 -1.50005,-0.14713 z m 4.04721,0.26214 c -0.41096,-0.28139 -0.6501,-1.05645 -0.47044,-1.52465 0.47191,-1.22978 2.20953,-0.94618 2.20953,0.36062 0,1.12569 -0.90776,1.73328 -1.73909,1.16403 z"
       id="path213" /></g></svg>
